<?xml version="1.0" standalone="no"?>
<!DOCTYPE svg PUBLIC "-//W3C//DTD SVG 1.1//EN" "http://www.w3.org/Graphics/SVG/1.1/DTD/svg11.dtd" >
<svg xmlns="http://www.w3.org/2000/svg" xmlns:xlink="http://www.w3.org/1999/xlink" version="1.1">
<metadata>
Created by FontForge 20170731 at Sun May 23 00:52:29 2021
 By Aleksey,,,
Copyright (c) 2013 by Letterhead Studio for Aeroflot Bonus. All rights reserved.
</metadata>
<defs>
<font id="AeroBonus-Heavy" horiz-adv-x="577" >
  <font-face 
    font-family="AeroBonus"
    font-weight="900"
    font-stretch="normal"
    units-per-em="2048"
    panose-1="2 0 0 0 0 0 0 0 0 0"
    ascent="1536"
    descent="-512"
    x-height="1049"
    cap-height="1456"
    bbox="-119 -440 2681 1935"
    underline-thickness="102"
    underline-position="-307"
    unicode-range="U+0020-FB02"
  />
<missing-glyph horiz-adv-x="534" 
 />
    <glyph glyph-name=".notdef" horiz-adv-x="534" 
 />
    <glyph glyph-name=".null" horiz-adv-x="0" 
 />
    <glyph glyph-name="nonmarkingreturn" horiz-adv-x="682" 
 />
    <glyph glyph-name="space" unicode=" " horiz-adv-x="593" 
 />
    <glyph glyph-name="exclam" unicode="!" horiz-adv-x="649" 
d="M547 1427l-107 -981h-231l-107 981h445zM528 162q0 -90 -51 -142.5t-151 -52.5q-96 0 -149.5 52t-53.5 133q0 83 50.5 134.5t152.5 51.5q98 0 150 -50.5t52 -125.5z" />
    <glyph glyph-name="quotedbl" unicode="&#x22;" horiz-adv-x="821" 
d="M147 913l-75 545h295l-76 -545h-144zM530 913l-75 545h295l-76 -545h-144z" />
    <glyph glyph-name="numbersign" unicode="#" horiz-adv-x="1312" 
d="M1266 1014l-17 -195h-235l-53 -252h219l-17 -196h-239l-74 -357h-221l73 357h-221l-73 -357h-222l74 357h-213l16 196h236l53 252h-217l17 195h239l74 370h221l-74 -370h222l73 370h221l-73 -370h211zM795 819h-224l-53 -252h223z" />
    <glyph glyph-name="dollar" unicode="$" horiz-adv-x="1204" 
d="M750 1544l-11 -160q179 -26 308 -77l-31 -250q-138 45 -295 73l-16 -249q50 -19 86 -34t83.5 -39.5t81.5 -48.5t69.5 -59t57.5 -73t36 -88t14 -107q0 -105 -39.5 -186.5t-108.5 -131t-155 -75.5t-187 -31l-10 -158h-148l11 164q-234 25 -424 138l55 245q83 -47 188 -86.5
t197 -52.5l23 317q-45 15 -74 26t-72 29.5t-72 37t-63.5 44t-57 55.5t-42.5 66.5t-29.5 82.5t-9.5 98q0 179 134 281t343 102l10 147h148zM791 391q0 42 -28.5 72t-82.5 57l-18 -262q72 15 100.5 54t28.5 79zM440 1040q0 -32 30 -56t89 -50l14 211q-133 -6 -133 -105z" />
    <glyph glyph-name="percent" unicode="%" horiz-adv-x="1685" 
d="M1389 336q0 85 -28.5 140.5t-92.5 55.5q-44 0 -72.5 -30t-39.5 -72.5t-11 -95.5q0 -88 30.5 -143.5t92.5 -55.5q60 0 90.5 57.5t30.5 143.5zM772 1081q0 -159 -96 -255.5t-258 -96.5q-92 0 -162.5 29.5t-112 80t-62 110.5t-20.5 126q0 67 20.5 128t61 112t111.5 81.5
t162 30.5q89 0 159.5 -29.5t112 -79.5t63 -110t21.5 -127zM1434 1401l-942 -1401h-240l942 1401h240zM1624 338q0 -159 -97 -254.5t-259 -95.5q-91 0 -162 29.5t-111.5 80t-61 109.5t-20.5 125q0 54 12.5 103.5t40.5 95.5t68.5 79.5t100.5 53.5t133 20q89 0 159 -29.5
t112 -79t63.5 -110t21.5 -127.5zM537 1079q0 85 -28.5 141t-92.5 56q-44 0 -72.5 -30.5t-39.5 -73t-11 -95.5q0 -88 30 -143t93 -55q60 0 90.5 57t30.5 143z" />
    <glyph glyph-name="ampersand" unicode="&#x26;" horiz-adv-x="1556" 
d="M1120 690l310 -26q-34 -217 -191 -406q103 -100 277 -100v-144q-144 -41 -244 -41q-165 0 -260 97q-154 -88 -373 -88q-252 0 -409.5 113.5t-157.5 287.5q0 118 91.5 216.5t246.5 156.5q-88 101 -129 177t-41 146q0 81 38 146t101.5 105t141.5 61.5t163 21.5
q110 0 204.5 -33t157 -104t62.5 -168q0 -109 -77 -198t-226 -150l246 -285q56 91 69 215zM659 211q94 0 175 51l-312 354q-76 -60 -76 -182q0 -96 55 -159.5t158 -63.5zM690 899q101 78 101 184q0 60 -29 94.5t-76 34.5q-44 0 -72 -32t-28 -90q0 -48 22 -92t82 -99z" />
    <glyph glyph-name="quotesingle" unicode="'" horiz-adv-x="438" 
d="M147 913l-75 545h295l-76 -545h-144z" />
    <glyph glyph-name="parenleft" unicode="(" horiz-adv-x="778" 
d="M92 524q0 268 99.5 509.5t308.5 432.5l207 -49q-81 -108 -136 -230t-79.5 -243.5t-33.5 -217t-9 -202.5q0 -106 9 -201.5t33.5 -216.5t79.5 -243t136 -230l-207 -49q-209 191 -308.5 432t-99.5 508z" />
    <glyph glyph-name="parenright" unicode=")" horiz-adv-x="778" 
d="M686 524q0 -267 -99 -508t-308 -432l-207 49q81 108 136 230t79.5 243t33.5 216.5t9 201.5q0 107 -9 202.5t-33.5 217t-79.5 243.5t-136 230l207 49q209 -191 308 -432t99 -510z" />
    <glyph glyph-name="asterisk" unicode="*" horiz-adv-x="976" 
d="M631 698h-283l82 297l-217 -221l-141 244l309 80l-309 80l141 243l217 -223l-82 299h283l-84 -299l217 219l141 -243l-295 -76l295 -76l-141 -244l-217 219z" />
    <glyph glyph-name="plus" unicode="+" horiz-adv-x="1253" 
d="M1171 500h-395v-408h-299v408h-395v297h395v385h299v-385h395v-297z" />
    <glyph glyph-name="comma" unicode="," horiz-adv-x="610" 
d="M117 -299q91 91 126.5 143.5t35.5 104.5q0 79 -47 124t-130 79q0 96 55.5 141t135.5 45q91 0 153 -72t62 -176q0 -73 -24.5 -137.5t-73 -122.5t-102 -104t-130.5 -101z" />
    <glyph glyph-name="hyphen" unicode="-" horiz-adv-x="681" 
d="M641 446h-600v265h600v-265z" />
    <glyph glyph-name="period" unicode="." horiz-adv-x="610" 
d="M508 162q0 -89 -51.5 -142t-151.5 -53q-96 0 -149.5 52t-53.5 133q0 83 50.5 134.5t152.5 51.5q98 0 150.5 -50.5t52.5 -125.5z" />
    <glyph glyph-name="slash" unicode="/" horiz-adv-x="901" 
d="M877 1477l-664 -1903h-285l666 1903h283z" />
    <glyph glyph-name="zero" unicode="0" horiz-adv-x="1355" 
d="M893 694q0 465 -217 465t-217 -465t217 -465t217 465zM1274 700q0 -155 -37 -280.5t-96.5 -207t-139.5 -137t-162 -79t-167 -23.5q-115 0 -219.5 44.5t-188 129.5t-133 222.5t-49.5 308.5q0 156 39.5 289.5t114.5 233t191 156t261 56.5q139 0 251 -55.5t184.5 -152.5
t111.5 -226t39 -279z" />
    <glyph glyph-name="one" unicode="1" horiz-adv-x="888" 
d="M705 1427v-1427h-375v1010h-299v227h321l121 190h232z" />
    <glyph glyph-name="two" unicode="2" horiz-adv-x="1183" 
d="M111 1038l-27 269q235 108 473 108q113 0 209 -24.5t171 -73t118 -129t43 -184.5q0 -76 -32 -159t-84 -157t-123.5 -149.5t-144.5 -137t-153 -118.5h551v-283h-1061v178q180 146 294 247.5t203 198.5t128 174.5t39 149.5q0 102 -58.5 149.5t-156.5 47.5q-160 0 -389 -107
z" />
    <glyph glyph-name="three" unicode="3" horiz-adv-x="1277" 
d="M51 147l117 238q216 -168 410 -168q105 0 173 47.5t68 136.5q0 34 -12 66t-38 62.5t-76 48.5t-118 18h-155v246h158q81 0 139.5 41t58.5 114q0 68 -53.5 102t-142.5 34q-161 0 -426 -97l-19 262q227 111 514 111q234 0 373 -99t139 -255q0 -120 -88.5 -204.5
t-234.5 -121.5q74 -11 137 -36t116.5 -64.5t84 -100.5t30.5 -137q0 -100 -49.5 -181t-134 -132t-192 -78t-226.5 -27q-154 0 -300 44.5t-253 129.5z" />
    <glyph glyph-name="four" unicode="4" horiz-adv-x="1318" 
d="M692 1008l-313 -422h313v422zM1257 303h-208v-303h-359v303h-661v244l692 854h328v-815h208v-283z" />
    <glyph glyph-name="five" unicode="5" horiz-adv-x="1249" 
d="M1178 473q0 -120 -47 -216.5t-128.5 -158t-187.5 -94.5t-227 -33q-294 0 -537 174l94 238q240 -158 390 -158q130 0 196 59.5t66 194.5q0 121 -65 177.5t-171 56.5q-65 0 -151 -19l-60 -92l-229 10l26 779h959v-263h-623l-8 -213q85 27 187 27q95 0 187 -32.5t165.5 -91
t118.5 -148.5t45 -197z" />
    <glyph glyph-name="six" unicode="6" horiz-adv-x="1290" 
d="M1118 1067q-67 37 -160.5 59.5t-154.5 22.5q-69 0 -123.5 -15.5t-100.5 -51.5t-76 -100t-42 -155q121 86 284 86q221 0 352.5 -129.5t131.5 -316.5q0 -100 -39.5 -189.5t-111 -157t-179 -107.5t-235.5 -40q-150 0 -265.5 51t-185.5 141.5t-105.5 207t-35.5 254.5
q0 167 49.5 311.5t137 248t214 163t275.5 59.5q195 0 391 -90zM844 442q0 117 -56 174.5t-141 57.5q-98 0 -188 -76q11 -218 60 -309.5t161 -91.5q66 0 115 61.5t49 183.5z" />
    <glyph glyph-name="seven" unicode="7" horiz-adv-x="1144" 
d="M1094 1391v-99l-549 -1304h-426l571 1120h-639v283h1043z" />
    <glyph glyph-name="eight" unicode="8" horiz-adv-x="1286" 
d="M897 768q158 -73 237.5 -176t79.5 -211q0 -79 -40.5 -152t-113.5 -130t-183.5 -91.5t-241.5 -34.5q-123 0 -222 23t-161.5 59.5t-104 86t-58.5 99t-17 101.5q0 226 301 344q-123 69 -182.5 151.5t-59.5 186.5q0 88 45 162t118.5 122.5t166 75.5t190.5 27q116 0 208 -22.5
t147 -58t90.5 -82t49 -90t13.5 -87.5q0 -104 -68.5 -176.5t-193.5 -126.5zM850 332q0 48 -31.5 90.5t-85 74.5t-101 52.5t-102.5 38.5q-59 -40 -84.5 -95t-25.5 -133q0 -94 56 -157.5t167 -63.5q101 0 154 55t53 138zM485 1104q0 -45 39 -90t91 -73.5t100 -39.5
q48 27 75 77.5t27 104.5q0 70 -44.5 118t-127.5 48q-77 0 -118.5 -42t-41.5 -103z" />
    <glyph glyph-name="nine" unicode="9" horiz-adv-x="1290" 
d="M80 98l92 217q67 -37 160.5 -59.5t154.5 -22.5q69 0 123.5 15.5t100.5 51.5t76 100t42 155q-121 -86 -284 -86q-221 0 -352.5 129.5t-131.5 316.5q0 100 40 189.5t111.5 157t179 107.5t235.5 40q150 0 265.5 -51t185.5 -141t105.5 -206.5t35.5 -254.5q0 -223 -84 -401
t-239 -280t-353 -102q-140 0 -245.5 31.5t-217.5 93.5zM446 940q0 -117 56 -174t141 -57q99 0 188 75q-11 219 -60 310.5t-161 91.5q-66 0 -115 -62t-49 -184z" />
    <glyph glyph-name="colon" unicode=":" horiz-adv-x="610" 
d="M508 883q0 -89 -51.5 -142t-151.5 -53q-97 0 -150 51.5t-53 132.5q0 83 50.5 135t152.5 52q98 0 150.5 -50.5t52.5 -125.5zM508 162q0 -89 -51.5 -142t-151.5 -53q-96 0 -149.5 52t-53.5 133q0 83 50.5 134.5t152.5 51.5q98 0 150.5 -50.5t52.5 -125.5z" />
    <glyph glyph-name="semicolon" unicode=";" horiz-adv-x="610" 
d="M508 883q0 -89 -51.5 -142t-151.5 -53q-97 0 -150 51.5t-53 132.5q0 83 50.5 135t152.5 52q98 0 150.5 -50.5t52.5 -125.5zM117 -299q91 91 126.5 143.5t35.5 104.5q0 79 -47 124t-130 79q0 96 55.5 141t135.5 45q91 0 153 -72t62 -176q0 -73 -24.5 -137.5t-73 -122.5
t-102 -104t-130.5 -101z" />
    <glyph glyph-name="less" unicode="&#x3c;" horiz-adv-x="1273" 
d="M1182 102l-1090 428v232l1090 430v-295l-711 -250l711 -250v-295z" />
    <glyph glyph-name="equal" unicode="=" horiz-adv-x="1253" 
d="M82 565h1089v-297h-1089v297zM82 1042h1089v-297h-1089v297z" />
    <glyph glyph-name="greater" unicode="&#x3e;" horiz-adv-x="1273" 
d="M1182 530l-1090 -428v295l711 250l-711 250v295l1090 -430v-232z" />
    <glyph glyph-name="question" unicode="?" horiz-adv-x="1062" 
d="M74 1073l-23 258q109 53 238 84t239 31q132 0 234 -37.5t165.5 -119t63.5 -197.5q0 -85 -24.5 -155t-63 -115.5t-85.5 -82.5t-94 -65t-85.5 -53.5t-63 -55.5t-24.5 -65q0 -30 4 -54h-233q-13 47 -13 103q0 57 32.5 113t78.5 100.5t92 87.5t78.5 89.5t32.5 90.5
q0 131 -209 131q-144 0 -340 -88zM639 162q0 -89 -51.5 -142t-151.5 -53q-96 0 -149.5 52t-53.5 133q0 83 50.5 134.5t152.5 51.5q98 0 150.5 -50.5t52.5 -125.5z" />
    <glyph glyph-name="at" unicode="@" horiz-adv-x="1785" 
d="M975 -2l-55 -201q-166 0 -303.5 40t-233.5 110t-162.5 166t-97.5 206.5t-31 233.5q0 147 47 276t128.5 224.5t189.5 165t232.5 104.5t254.5 35q156 0 282.5 -44t208.5 -116t137.5 -167.5t79 -193t23.5 -198.5q0 -131 -59 -246.5t-166 -187.5t-236 -72q-76 0 -144 30
t-95 93q-105 -123 -236 -123q-117 0 -190.5 100.5t-73.5 251.5q0 137 62 253t166.5 182.5t224.5 66.5q172 0 329 -147l-65 -439q0 -11 -1.5 -27.5t15 -32t49.5 -15.5q69 0 126 95t57 216q0 71 -13.5 137.5t-49.5 135t-91 119t-146 82.5t-206 32q-117 0 -226 -42.5
t-193.5 -117.5t-135.5 -189.5t-51 -248.5q0 -90 23 -169.5t73.5 -149.5t125 -120t184 -79t243.5 -29zM956 506l41 254q-39 20 -73 20q-56 0 -101 -48t-66.5 -113.5t-21.5 -129.5t19.5 -94t48.5 -30q46 0 85.5 40.5t67.5 100.5z" />
    <glyph glyph-name="A" unicode="A" horiz-adv-x="1431" 
d="M1030 0l-106 315h-463l-109 -315h-372l575 1462h354l543 -1462h-422zM696 1010l-135 -406h264z" />
    <glyph glyph-name="B" unicode="B" horiz-adv-x="1296" 
d="M1196 1067q0 -98 -61 -183.5t-156 -115.5q120 -40 193 -133.5t73 -208.5q0 -77 -19 -140.5t-50.5 -107t-76.5 -76.5t-92 -52t-103.5 -30.5t-104 -15.5t-99.5 -4h-577v1456h575q107 0 192.5 -19.5t156.5 -62.5t110 -121t39 -186zM489 612v-336h197q84 0 132 41.5t48 114.5
q0 80 -52.5 130t-145.5 50h-179zM489 1180v-306h185q69 0 108 50.5t39 113.5q0 55 -36 98.5t-109 43.5h-187z" />
    <glyph glyph-name="C" unicode="C" horiz-adv-x="1310" 
d="M1167 467l107 -254q-119 -119 -255.5 -178.5t-275.5 -59.5q-106 0 -206.5 32t-186.5 96t-150.5 151.5t-101.5 206t-37 252.5q0 172 59 316t160 239.5t235.5 148.5t285.5 53q192 0 391 -90l-23 -290q-190 71 -325 71q-84 0 -153.5 -24t-125 -74.5t-86 -136.5t-30.5 -201
q0 -200 100 -313t252 -113q178 0 366 168z" />
    <glyph glyph-name="D" unicode="D" horiz-adv-x="1449" 
d="M664 0h-541v1456h541q161 0 293 -45.5t229 -133t150 -224t53 -310.5q0 -341 -195 -542t-530 -201zM489 1159v-862h170q163 0 250.5 123.5t87.5 316.5q0 121 -33 213.5t-110 150.5t-192 58h-173z" />
    <glyph glyph-name="E" unicode="E" horiz-adv-x="1200" 
d="M489 600v-303h660v-297h-1026v1456h1012v-297h-646v-274h533v-285h-533z" />
    <glyph glyph-name="F" unicode="F" horiz-adv-x="1130" 
d="M1110 1456v-297h-618v-274h509v-285h-509v-600h-369v1456h987z" />
    <glyph glyph-name="G" unicode="G" horiz-adv-x="1449" 
d="M1348 764v-574q-131 -112 -278.5 -166.5t-295.5 -54.5q-142 0 -271 51.5t-227.5 144.5t-156.5 234t-58 308q0 174 58 318.5t159.5 242t240.5 151.5t300 54q218 0 459 -107l-23 -297q-235 98 -405 98q-192 0 -296.5 -116.5t-104.5 -335.5q0 -191 103 -312.5t265 -121.5
q94 0 170 32v179h-215v272h576z" />
    <glyph glyph-name="H" unicode="H" horiz-adv-x="1441" 
d="M492 905h460v551h367v-1456h-367v602h-460v-602h-369v1456h369v-551z" />
    <glyph glyph-name="I" unicode="I" horiz-adv-x="612" 
d="M123 0v1456h366v-1456h-366z" />
    <glyph glyph-name="J" unicode="J" horiz-adv-x="591" 
d="M-119 -281v226q50 -4 70 -4q88 0 125 40.5t37 155.5v1319h366v-1323q0 -237 -90.5 -342.5t-267.5 -105.5q-110 0 -240 34z" />
    <glyph glyph-name="K" unicode="K" horiz-adv-x="1431" 
d="M123 0v1456h369v-567h86l372 567h422l-491 -711q523 -692 563 -745h-479l-404 573h-69v-573h-369z" />
    <glyph glyph-name="L" unicode="L" horiz-adv-x="1093" 
d="M1063 0h-940v1456h369v-1159h571v-297z" />
    <glyph glyph-name="M" unicode="M" horiz-adv-x="1865" 
d="M174 1456h348l402 -887l387 887h360l103 -1456h-375l-53 831l-345 -841h-202l-357 841l-36 -831h-314z" />
    <glyph glyph-name="N" unicode="N" horiz-adv-x="1447" 
d="M1051 0l-625 860v-860h-303v1456h311l588 -790v790h303v-1456h-274z" />
    <glyph glyph-name="O" unicode="O" horiz-adv-x="1503" 
d="M762 1475q103 0 199 -25.5t184.5 -83t153.5 -141.5t104 -209t39 -277q0 -173 -53 -317t-147 -241.5t-224 -151.5t-281 -54q-212 0 -366 93t-232 257t-78 382q0 155 40 284t107.5 217t158 149.5t190 89.5t205.5 28zM754 268q80 0 141 43t94.5 113t49.5 147t16 158
q0 76 -17 151.5t-51 144.5t-95 112t-140 43t-139.5 -43t-94.5 -112t-50.5 -144.5t-16.5 -151.5q0 -52 9.5 -110.5t32.5 -121.5t56 -113.5t86.5 -83t118.5 -32.5z" />
    <glyph glyph-name="P" unicode="P" horiz-adv-x="1243" 
d="M492 494v-494h-369v1456h520q267 0 417 -126t150 -347q0 -102 -37.5 -190.5t-107.5 -155t-179 -105t-243 -38.5h-151zM492 1159v-373h151q79 0 135 53t56 140t-55 133.5t-136 46.5h-151z" />
    <glyph glyph-name="Q" unicode="Q" horiz-adv-x="1513" 
d="M762 1475q103 0 199 -25.5t184.5 -83t153.5 -141.5t104 -209t39 -277q0 -262 -116.5 -449t-315.5 -265q55 -63 129 -99.5t145 -36.5q104 0 215 43l35 -266q-126 -69 -297 -69q-140 0 -293 107.5t-250 272.5q-200 9 -343.5 103.5t-216.5 255t-73 371.5q0 155 40 284
t107.5 217t158 149.5t190 89.5t205.5 28zM754 268q80 0 141 43t94.5 113t49.5 147t16 158q0 76 -17 151.5t-51 144.5t-95 112t-140 43t-139.5 -43t-94.5 -112t-50.5 -144.5t-16.5 -151.5q0 -52 9.5 -110.5t32.5 -121.5t56 -113.5t86.5 -83t118.5 -32.5z" />
    <glyph glyph-name="R" unicode="R" horiz-adv-x="1335" 
d="M489 1159v-350h164q183 0 183 174q0 34 -8 62.5t-27 55.5t-56 42.5t-90 15.5h-166zM489 516v-516h-366v1456h549q137 0 243.5 -39t169.5 -104t95 -143.5t32 -165.5q0 -133 -63 -242.5t-174 -171.5l399 -590h-432l-315 516h-138z" />
    <glyph glyph-name="S" unicode="S" horiz-adv-x="1116" 
d="M68 1063q0 194 134 304t343 110q99 0 222.5 -25t231.5 -72l-30 -272q-68 30 -181.5 60t-195.5 30q-88 0 -133 -23t-45 -83q0 -24 13.5 -45.5t31 -37t54.5 -34t65 -30t81 -32.5q48 -19 85 -35.5t83.5 -42.5t81 -52t69 -63.5t57 -78t36.5 -93.5t14 -112q0 -96 -28.5 -174
t-77.5 -130.5t-117 -88t-144 -51t-161 -15.5q-132 0 -273 41.5t-259 114.5l55 264q102 -62 223 -108.5t219 -46.5q52 0 90.5 11t59 27t33 37.5t15.5 38t3 33.5q0 42 -15.5 73t-58.5 57.5t-73 39.5t-103 41q-7 3 -10 4q-49 18 -82.5 32.5t-78.5 38t-75 47.5t-62.5 59
t-52 74.5t-32 92.5t-12.5 115z" />
    <glyph glyph-name="T" unicode="T" horiz-adv-x="1216" 
d="M1202 1456v-297h-411v-1159h-367v1159h-410v297h1188z" />
    <glyph glyph-name="U" unicode="U" horiz-adv-x="1380" 
d="M719 262q62 0 111 22t77.5 58t43 77.5t14.5 84.5v952h313v-932q0 -265 -157 -407t-435 -142q-124 0 -226 28t-184 87t-128 160.5t-46 238.5v967h367v-954q0 -30 7 -61t25.5 -64t46 -58t72 -41t99.5 -16z" />
    <glyph glyph-name="V" unicode="V" horiz-adv-x="1370" 
d="M381 1456l313 -993l324 993h373l-555 -1466h-334l-522 1466h401z" />
    <glyph glyph-name="W" unicode="W" horiz-adv-x="1984" 
d="M381 1456l190 -952l283 952h285l237 -921l256 921h373l-473 -1466h-344l-223 901l-263 -901h-364l-358 1466h401z" />
    <glyph glyph-name="X" unicode="X" horiz-adv-x="1495" 
d="M1024 0l-311 524l-295 -524h-398l496 752l-450 704h448l274 -471l265 471h372l-444 -692l494 -764h-451z" />
    <glyph glyph-name="Y" unicode="Y" horiz-adv-x="1329" 
d="M1020 1456h319l-483 -868v-588h-367v588l-499 868h424l305 -559z" />
    <glyph glyph-name="Z" unicode="Z" horiz-adv-x="1245" 
d="M1176 1247l-654 -950h662v-297h-1133v205l656 954h-607v297h1076v-209z" />
    <glyph glyph-name="bracketleft" unicode="[" horiz-adv-x="700" 
d="M649 -401h-506v1857h506v-188h-207v-1481h207v-188z" />
    <glyph glyph-name="backslash" unicode="\" horiz-adv-x="901" 
d="M688 -426l-663 1903h282l666 -1903h-285z" />
    <glyph glyph-name="bracketright" unicode="]" horiz-adv-x="700" 
d="M557 -401h-506v188h207v1481h-207v188h506v-1857z" />
    <glyph glyph-name="asciicircum" unicode="^" horiz-adv-x="1220" 
d="M1128 651l-270 -2l-248 561l-248 -561h-270l402 887h233z" />
    <glyph glyph-name="underscore" unicode="_" horiz-adv-x="1091" 
d="M1092 -334h-1092v191h1092v-191z" />
    <glyph glyph-name="grave" unicode="`" horiz-adv-x="708" 
d="M657 1266l-137 -80l-469 280l264 144z" />
    <glyph glyph-name="a" unicode="a" horiz-adv-x="1134" 
d="M1042 756v-756h-258l-43 94q-59 -53 -139.5 -81.5t-165.5 -28.5q-102 0 -185.5 30t-138.5 97.5t-55 162.5q0 79 35.5 142t94.5 104t142.5 68.5t173 40t191.5 14.5v49q0 156 -168 156q-122 0 -358 -57l-31 206q247 86 465 86q73 0 135.5 -10t119.5 -33.5t97.5 -60
t64 -93.5t23.5 -130zM422 319q0 -64 41.5 -96.5t101.5 -32.5q67 0 129 35v248q-52 -1 -90.5 -5.5t-74 -15t-58 -27t-36 -43.5t-13.5 -63z" />
    <glyph glyph-name="b" unicode="b" horiz-adv-x="1245" 
d="M467 1534v-553q137 96 289 96q184 0 306 -143t122 -379q0 -153 -46.5 -267.5t-131 -183.5t-195 -103t-246.5 -34q-204 0 -452 78v1489h354zM608 823q-53 0 -141 -45v-585q60 -11 90 -11q122 0 192 88.5t70 245.5q0 147 -56 227t-155 80z" />
    <glyph glyph-name="c" unicode="c" horiz-adv-x="1067" 
d="M948 352l88 -188q-200 -184 -450 -184q-115 0 -211 34t-168 98.5t-112 166t-40 229.5q0 245 162 403t418 158q194 0 350 -90l-29 -221q-183 88 -288 88q-112 0 -178 -80.5t-66 -235.5q0 -327 201 -327q67 0 153 38t170 111z" />
    <glyph glyph-name="d" unicode="d" horiz-adv-x="1236" 
d="M1124 1534v-1534h-315l-18 78q-129 -103 -283 -103q-187 0 -320 152.5t-133 380.5q0 121 32 221t96 176.5t168.5 119t240.5 42.5q34 0 86.5 -11t93.5 -30v508h352zM635 246q53 0 137 41v512q-77 22 -123 22q-109 0 -172 -88t-63 -213q0 -119 57.5 -196.5t163.5 -77.5z
" />
    <glyph glyph-name="e" unicode="e" horiz-adv-x="1163" 
d="M997 330l101 -185q-96 -84 -220 -128t-255 -44q-113 0 -213.5 34t-180.5 99t-127 170t-47 236q0 160 70.5 286.5t199 198.5t291.5 72q112 0 201 -28.5t156 -87t103 -154.5t36 -224q0 -68 -2 -88h-686q4 -140 74.5 -216t175.5 -76q122 0 323 135zM424 662h344
q-3 97 -43 161t-109 64q-75 0 -127.5 -64.5t-64.5 -160.5z" />
    <glyph glyph-name="f" unicode="f" horiz-adv-x="817" 
d="M895 1503l-18 -207q-122 19 -187 19q-47 0 -77.5 -12.5t-45 -38t-19.5 -52.5t-5 -69v-94h264v-230h-264v-819h-353v819h-167v230h167v100q0 403 402 403q139 0 303 -49z" />
    <glyph glyph-name="g" unicode="g" horiz-adv-x="1208" 
d="M1206 1165l-16 -209q-78 19 -134 17t-116 -29q70 -62 94.5 -117t24.5 -118q0 -92 -44 -166t-115.5 -118t-156.5 -67.5t-174 -23.5q-45 0 -88 6q-86 0 -103 -42q-12 -28 15 -49q16 -13 39 -13h422q93 0 161 -27t103 -71t50.5 -89t15.5 -92q0 -92 -56.5 -167.5
t-149.5 -121.5t-206.5 -71t-232.5 -25q-141 0 -260 30t-195 91t-76 143q0 75 69 135t185 64q-47 9 -82 33t-51 54.5t-20 66t11 69.5t41.5 62t71.5 46.5t101 20.5q-66 21 -116.5 64t-77 91.5t-39.5 91.5t-13 77q0 109 64.5 191t170.5 123.5t236 41.5q134 0 238 -37
q85 91 180 123.5t229 11.5zM737 -37h-360q-76 -26 -76 -80t76.5 -90.5t191.5 -36.5q42 0 85 6t88.5 20t74.5 43t29 69q0 24 -8 39t-26 21t-33 7.5t-42 1.5zM571 526q68 0 108 55.5t40 131.5q0 71 -39 124.5t-107 53.5q-67 0 -106 -54.5t-39 -125.5q0 -74 38.5 -129.5
t104.5 -55.5z" />
    <glyph glyph-name="h" unicode="h" horiz-adv-x="1210" 
d="M1118 737v-737h-352v655q0 91 -33.5 138t-120.5 47q-50 0 -151 -33l6 2v-809h-354v1534h354v-543q142 99 299 99q84 0 149 -24.5t102 -61t61 -86t32 -93t8 -88.5z" />
    <glyph glyph-name="i" unicode="i" 
d="M465 1049v-1049h-352v1049h352zM289 1196q-88 0 -145.5 47.5t-57.5 124.5t58.5 125.5t144.5 48.5t144.5 -48.5t58.5 -125.5t-57.5 -124.5t-145.5 -47.5z" />
    <glyph glyph-name="j" unicode="j" 
d="M-57 -391v145q104 -17 137 29t33 188v1078h352v-1096q0 -173 -92 -270t-264 -97q-58 0 -166 23zM289 1196q-88 0 -145.5 47.5t-57.5 124.5t58.5 125.5t144.5 48.5t144.5 -48.5t58.5 -125.5t-57.5 -124.5t-145.5 -47.5z" />
    <glyph glyph-name="k" unicode="k" horiz-adv-x="1210" 
d="M467 1534v-889h74l243 404h390l-343 -500l398 -549h-416l-268 416h-78v-416h-354v1534h354z" />
    <glyph glyph-name="l" unicode="l" 
d="M465 1534v-1534h-352v1534h352z" />
    <glyph glyph-name="m" unicode="m" horiz-adv-x="1830" 
d="M1739 748v-748h-355v623q0 112 -30.5 163.5t-106.5 51.5q-54 0 -145 -35v-803h-354v623q0 110 -33.5 164.5t-120.5 54.5q-68 0 -129 -31v-811h-352v1049h268l41 -72q61 51 150 80.5t188 29.5q198 0 272 -124q158 127 354 127q102 0 175 -31.5t110 -84.5t52.5 -108
t15.5 -118z" />
    <glyph glyph-name="n" unicode="n" horiz-adv-x="1210" 
d="M1118 737v-737h-352v655q0 91 -33.5 138t-120.5 47q-41 0 -145 -31v-809h-354v1049h303l24 -68q142 109 326 109q84 0 149 -24.5t102 -61t61 -86t32 -93t8 -88.5z" />
    <glyph glyph-name="o" unicode="o" horiz-adv-x="1249" 
d="M631 1069q254 0 407.5 -144.5t153.5 -392.5q0 -117 -38 -218t-108.5 -177t-180 -120t-244.5 -44q-134 0 -242 42t-177.5 115t-107 170.5t-37.5 211.5q0 163 67 288t198.5 197t308.5 72zM623 877q-67 0 -112.5 -48.5t-64 -122.5t-18.5 -169q0 -92 13.5 -161.5t33.5 -108.5
t48 -63t52.5 -31t51.5 -7q31 0 56.5 7.5t52.5 30.5t45.5 60.5t30 102.5t11.5 151q0 160 -52 259.5t-148 99.5z" />
    <glyph glyph-name="p" unicode="p" horiz-adv-x="1243" 
d="M408 1049l26 -70q73 58 158 84.5t156 26.5q131 0 231 -73t151.5 -193t51.5 -267q0 -258 -145 -423t-371 -165q-101 0 -199 43v-418h-354v1455h295zM616 831q-51 0 -149 -30v-559q77 -35 137 -35q213 0 213 313q0 152 -47.5 231.5t-153.5 79.5z" />
    <glyph glyph-name="q" unicode="q" horiz-adv-x="1243" 
d="M778 -406v422q-142 -43 -233 -43q-216 0 -350 153.5t-134 403.5q0 151 63 275.5t167.5 194t226.5 69.5q163 0 289 -104q0 1 2 4t2 4l31 76h288v-1455h-352zM641 217q54 0 137 29v520q-78 43 -137 43q-106 0 -163.5 -81.5t-57.5 -205.5q0 -140 54 -222.5t167 -82.5z" />
    <glyph glyph-name="r" unicode="r" horiz-adv-x="854" 
d="M850 1059l-31 -303q-149 37 -254 37q-41 0 -98 -11v-782h-354v1049h280l31 -93q48 57 127.5 92t165.5 35q59 0 133 -24z" />
    <glyph glyph-name="s" unicode="s" horiz-adv-x="1021" 
d="M502 -27q-115 0 -236 30.5t-215 78.5l27 235q89 -59 207.5 -98t206.5 -39q71 0 110 21t39 75q0 32 -25 56t-65.5 38t-93 30t-106.5 31t-106.5 42.5t-93 62.5t-65.5 93t-25 133q0 78 37 139t100 96.5t140.5 53.5t165.5 18q196 0 352 -84l-20 -207q-62 31 -158.5 59.5
t-163.5 28.5q-121 0 -121 -82q0 -31 32 -51.5t83 -34t112.5 -27.5t123 -39t112.5 -61.5t83 -102t32 -153.5q0 -89 -38 -156.5t-104.5 -107t-148.5 -59t-178 -19.5z" />
    <glyph glyph-name="t" unicode="t" horiz-adv-x="856" 
d="M805 250l16 -221q-168 -43 -299 -43q-336 0 -336 272v561h-163v230h184l74 288h258v-288h278v-228h-278v-428q0 -93 25.5 -128.5t76.5 -35.5q41 0 164 21z" />
    <glyph glyph-name="u" unicode="u" horiz-adv-x="1208" 
d="M1096 1049v-1049h-281l-41 80q-78 -51 -164 -80t-157 -29q-161 0 -261 103t-100 266v709h354v-627q0 -215 140 -215q62 0 157 31v811h353z" />
    <glyph glyph-name="v" unicode="v" horiz-adv-x="1052" 
d="M377 1049l196 -574q35 95 102.5 287t102.5 287h285l-422 -1059h-250l-401 1059h387z" />
    <glyph glyph-name="w" unicode="w" horiz-adv-x="1564" 
d="M969 1049l161 -521q96 304 168 521h277l-350 -1059h-271l-174 532q-23 -69 -86.5 -251.5t-95.5 -280.5h-260l-348 1059h375l161 -531l162 531h281z" />
    <glyph glyph-name="x" unicode="x" horiz-adv-x="1153" 
d="M436 1049l168 -275l156 275h344l-346 -482l385 -567h-398l-196 324l-199 -324h-340l381 541l-336 508h381z" />
    <glyph glyph-name="y" unicode="y" horiz-adv-x="1028" 
d="M360 1049l199 -592l215 592h285l-457 -1174q-64 -165 -133 -229t-201 -64q-74 0 -200 27v184q66 -9 113 -8.5t82.5 28t64.5 89.5l59 129l-403 1018h376z" />
    <glyph glyph-name="z" unicode="z" horiz-adv-x="1044" 
d="M989 0h-946v133l496 696h-455v220h901v-123l-506 -703h510v-223z" />
    <glyph glyph-name="braceleft" unicode="{" horiz-adv-x="862" 
d="M352 545q66 -10 111.5 -32.5t71 -49.5t39 -71t17 -82.5t3.5 -98.5v-219q0 -41 2 -65t11 -56t27 -49.5t51.5 -30t82.5 -12.5q27 0 43 2v-162q-65 -10 -145 -10q-92 0 -169 32t-126 84.5t-76 118t-27 133.5v277q0 118 -54 168.5t-163 50.5v143q108 0 162.5 51t54.5 169v276
q0 68 27 133.5t76 118.5t126 85t169 32q74 0 145 -11v-161q-16 2 -43 2q-49 0 -82.5 -12.5t-51.5 -30t-27 -49.5t-11 -56t-2 -65v-219q0 -60 -3.5 -98.5t-17 -82.5t-39 -71t-71 -49.5t-111.5 -32.5z" />
    <glyph glyph-name="bar" unicode="|" horiz-adv-x="555" 
d="M412 -406h-269v1942h269v-1942z" />
    <glyph glyph-name="braceright" unicode="}" horiz-adv-x="862" 
d="M510 545q-66 10 -111.5 32.5t-71 49.5t-39 71t-17 82.5t-3.5 98.5v219q0 41 -2 65t-11 56t-27 49.5t-51.5 30t-82.5 12.5q-27 0 -43 -2v161q71 11 146 11q92 0 168.5 -32t125.5 -85t76 -118.5t27 -133.5v-276q0 -118 54.5 -169t162.5 -51v-143q-109 0 -163 -50.5
t-54 -168.5v-277q0 -68 -27 -133.5t-76 -118t-125.5 -84.5t-168.5 -32q-81 0 -146 10v162q16 -2 43 -2q49 0 82.5 12.5t51.5 30t27 49.5t11 56t2 65v219q0 60 3.5 98.5t17 82.5t39 71t71 49.5t111.5 32.5z" />
    <glyph glyph-name="asciitilde" unicode="~" horiz-adv-x="1232" 
d="M399 866q44 0 101.5 -23.5t104 -51t103.5 -51t99 -23.5q106 0 166 149l188 -82q-39 -160 -126.5 -258t-200.5 -98q-44 0 -101.5 23.5t-104 51.5t-103.5 51.5t-99 23.5q-106 0 -166 -150l-188 82q39 160 126.5 258t200.5 98z" />
    <glyph glyph-name="exclamdown" unicode="&#xa1;" horiz-adv-x="649" 
d="M102 -358l107 981h231l107 -981h-445zM121 907q0 89 51.5 142t151.5 53q96 0 149 -51.5t53 -132.5q0 -83 -50 -135t-152 -52q-98 0 -150.5 50.5t-52.5 125.5z" />
    <glyph glyph-name="cent" unicode="&#xa2;" horiz-adv-x="2170" 
d="M561 326q0 -58 -43 -104t-104 -46q-56 0 -101 41.5t-45 104.5q0 57 40.5 102t105.5 45q58 0 102.5 -39.5t44.5 -103.5zM1905 1102q0 -57 -41.5 -103.5t-102.5 -46.5q-58 0 -103.5 40.5t-45.5 105.5q0 59 43 103t106 44q56 0 100 -40t44 -103zM846 39q0 -55 -46 -101.5
t-102 -46.5q-63 0 -104 45.5t-41 104.5q0 64 45.5 103.5t103.5 39.5q64 0 104 -44.5t40 -100.5zM1620 1382q0 -58 -44 -101.5t-103 -43.5q-64 0 -105 45.5t-41 101.5q0 64 46.5 105t101.5 41q62 0 103.5 -45t41.5 -103zM940 1487q0 57 44 101t103 44q57 0 101.5 -44
t44.5 -101q0 -59 -44.5 -103.5t-101.5 -44.5q-60 0 -103.5 44t-43.5 104zM940 -63q0 60 43.5 103.5t103.5 43.5q58 0 102 -44t44 -103t-44.5 -103.5t-101.5 -44.5q-60 0 -103.5 44t-43.5 104zM700 1235q-56 0 -100.5 43t-44.5 104q0 58 41 102t102 44q58 0 102 -40t44 -104
q0 -57 -40 -103t-104 -46zM416 954q-57 0 -102.5 43t-45.5 103q0 63 45.5 103t104.5 40q64 0 103.5 -43.5t39.5 -101.5q0 -64 -44.5 -104t-100.5 -40zM1714 711q0 57 44 101t104 44q57 0 101 -44t44 -101q0 -60 -44 -104t-101 -44q-60 0 -104 44t-44 104zM164 711
q0 57 44 101t103 44q57 0 101.5 -44t44.5 -101q0 -59 -44.5 -103.5t-101.5 -44.5q-60 0 -103.5 44t-43.5 104zM1327 43q0 57 44 101t104 44q57 0 101 -44t44 -101q0 -59 -44 -103t-101 -44q-60 0 -104 43.5t-44 103.5zM1610 324q0 58 44 101.5t103 43.5q57 0 101.5 -44
t44.5 -101q0 -60 -44.5 -104t-101.5 -44q-60 0 -103.5 44t-43.5 104z" />
    <glyph glyph-name="sterling" unicode="&#xa3;" horiz-adv-x="1294" 
d="M645 1044v-83h307v-238h-307v-92q0 -138 -50.5 -235.5t-145.5 -147.5h745v-248h-1128v190q62 44 103.5 84t65.5 74.5t36 79.5t15 83.5t3 102.5v109h-137v238h137v83q0 100 36 176.5t99.5 121.5t143 67.5t173.5 22.5q185 0 389 -93v-225q-241 76 -333 76q-152 0 -152 -146
z" />
    <glyph glyph-name="yen" unicode="&#xa5;" horiz-adv-x="2226" 
d="M1346 1376h520v-475h358l-61 -172h-297v-129h297l-62 -174h-235v-426h-357v1083l-227 -698h-309l-228 698v-1083h-356v426h-235l-62 174h297v129h-297l-61 172h358v475h520l217 -694z" />
    <glyph glyph-name="brokenbar" unicode="&#xa6;" horiz-adv-x="555" 
d="M412 -406h-269v848h269v-848zM412 688h-269v848h269v-848z" />
    <glyph glyph-name="section" unicode="&#xa7;" horiz-adv-x="1103" 
d="M356 598q0 -37 20.5 -62.5t78 -58t188.5 -92.5q70 61 70 129q0 56 -54.5 96t-226.5 117q-76 -66 -76 -129zM528 -348q-191 0 -397 108l21 209q242 -102 358 -102q73 0 113.5 29t40.5 75q0 35 -26 66.5t-68 55.5t-96 51.5t-110.5 52.5t-110.5 59t-96 70.5t-68 89
t-26 112.5q0 183 173 306q-109 89 -109 239q0 69 25.5 126.5t67 97t96.5 66.5t112.5 39.5t116.5 12.5q176 0 370 -102l-20 -201q-219 90 -330 90q-63 0 -94 -25t-31 -59q0 -38 31.5 -71t82 -60t111.5 -54.5t122 -61t111.5 -72.5t82 -97t31.5 -127q0 -176 -164 -294
q129 -104 129 -261t-130 -262.5t-319 -105.5z" />
    <glyph glyph-name="dieresis" unicode="&#xa8;" horiz-adv-x="966" 
d="M258 1233q-74 0 -120 38t-46 111t46.5 112.5t119.5 39.5q74 0 121 -39t47 -113t-46 -111.5t-122 -37.5zM707 1233q-74 0 -120 38t-46 111t46.5 112.5t119.5 39.5q74 0 120.5 -39t46.5 -113t-46 -111.5t-121 -37.5z" />
    <glyph glyph-name="copyright" unicode="&#xa9;" horiz-adv-x="1644" 
d="M1573 725q0 -207 -99 -381.5t-272 -276.5t-379 -102q-207 0 -379.5 100.5t-272 274t-99.5 381.5t100 382.5t273.5 276t381.5 101.5q156 0 295 -59.5t237.5 -160.5t156 -241t57.5 -295zM1423 725q0 169 -77 311.5t-214 226t-305 83.5t-307 -83.5t-218 -227t-79 -314.5
q0 -169 78.5 -312t216.5 -227t305 -84q168 0 306 84.5t216 228.5t78 314zM1110 555l49 -102q-158 -140 -332 -140q-170 0 -280.5 117t-110.5 301q0 192 119.5 315t310.5 123q139 0 248 -65l-18 -131q-102 45 -191 45q-109 0 -176 -69t-67 -210q0 -135 55.5 -203.5
t150.5 -68.5q109 0 242 88z" />
    <glyph glyph-name="guillemotleft" unicode="&#xab;" horiz-adv-x="964" 
d="M913 119h-233l-219 411l229 420h223l-176 -420zM504 119h-234l-219 411l230 420h223l-176 -420z" />
    <glyph glyph-name="logicalnot" unicode="&#xac;" horiz-adv-x="1257" 
d="M1145 897v-653h-275v370h-798v283h1073z" />
    <glyph glyph-name="registered" unicode="&#xae;" horiz-adv-x="1644" 
d="M1573 725q0 -207 -99 -381.5t-272 -276.5t-379 -102q-207 0 -379.5 100.5t-272 274t-99.5 381.5t100 382.5t273.5 276t381.5 101.5q156 0 295 -59.5t237.5 -160.5t156 -241t57.5 -295zM1423 725q0 169 -77 311.5t-214 226t-305 83.5t-307 -83.5t-218 -227t-79 -314.5
q0 -169 78.5 -312t216.5 -227t305 -84q168 0 306 84.5t216 228.5t78 314zM1233 328h-248l-194 358h-72v-358h-199v823h334q56 0 106 -11t96 -35t73.5 -70t27.5 -109q0 -76 -42.5 -134t-121.5 -81zM719 784h100q60 0 94.5 39.5t34.5 98.5q0 52 -35 87t-94 35h-100v-260z" />
    <glyph glyph-name="degree" unicode="&#xb0;" horiz-adv-x="929" 
d="M113 1141q0 138 102.5 237t247.5 99q148 0 251 -98t103 -238q0 -138 -102.5 -237t-247.5 -99q-146 0 -250 99t-104 237zM315 1141q0 -64 44 -111t104 -47q63 0 108 46.5t45 111.5q0 64 -44.5 110.5t-104.5 46.5q-63 0 -107.5 -46t-44.5 -111z" />
    <glyph glyph-name="plusminus" unicode="&#xb1;" horiz-adv-x="1232" 
d="M72 297h1089v-297h-1089v297zM1161 750h-395v-326h-299v326h-395v297h395v323h299v-323h395v-297z" />
    <glyph glyph-name="twosuperior" unicode="&#xb2;" horiz-adv-x="925" 
d="M131 1247l-12 135q163 76 346 76q73 0 135 -15t113.5 -48t80.5 -91.5t29 -138.5q0 -84 -46.5 -162.5t-121 -136t-158 -98t-167.5 -61.5h504v-160h-742v135q206 84 343.5 223.5t137.5 261.5q0 148 -159 148q-107 0 -283 -68z" />
    <glyph glyph-name="threesuperior" unicode="&#xb3;" horiz-adv-x="993" 
d="M92 592l80 149q154 -106 289 -106q73 0 121.5 30.5t48.5 86.5q0 21 -8.5 43.5t-27 45t-54 36.5t-82.5 14h-109v153h111q54 0 96.5 34.5t42.5 80.5q0 84 -139 84q-122 0 -297 -59l-14 164q157 69 362 69q164 0 261 -62t97 -161q0 -76 -64 -136.5t-163 -82.5
q106 -15 182 -76.5t76 -155.5q0 -83 -60 -143t-154 -88.5t-208 -28.5q-234 0 -387 109z" />
    <glyph glyph-name="acute" unicode="&#xb4;" horiz-adv-x="708" 
d="M188 1186l-137 80l342 344l264 -144z" />
    <glyph glyph-name="mu" unicode="&#xb5;" horiz-adv-x="1175" 
d="M430 -371l-338 -65v1485h338v-666q0 -186 143 -186q72 0 175 47v805h335v-1049h-249l-56 82q-40 -43 -106.5 -76t-134.5 -33q-58 0 -107 27v-371z" />
    <glyph glyph-name="paragraph" unicode="&#xb6;" horiz-adv-x="1458" 
d="M1237 -408h-258v1618h-182v-927h-199q-216 0 -361 154.5t-145 393.5q0 141 50 255.5t136 188t197.5 113t237.5 39.5h673v-217h-149v-1618z" />
    <glyph glyph-name="periodcentered" unicode="&#xb7;" horiz-adv-x="1183" 
d="M795 729q0 -89 -51.5 -141.5t-151.5 -52.5q-97 0 -150 51.5t-53 132.5q0 83 50.5 134.5t152.5 51.5q98 0 150.5 -50.5t52.5 -125.5z" />
    <glyph glyph-name="cedilla" unicode="&#xb8;" horiz-adv-x="585" 
d="M211 2h205l-64 -108h19q67 0 105 -44t38 -106q0 -71 -60 -127.5t-167 -56.5q-49 0 -110 11.5t-105 31.5l16 116q74 -43 145 -43q95 0 95 62q0 39 -47.5 51t-180.5 12z" />
    <glyph glyph-name="onesuperior" unicode="&#xb9;" horiz-adv-x="780" 
d="M545 1425v-895h-264v633h-209v144h225l84 118h164z" />
    <glyph glyph-name="guillemotright" unicode="&#xbb;" horiz-adv-x="964" 
d="M285 119h-234l176 411l-176 420h223l230 -420zM694 119h-233l176 411l-176 420h223l229 -420z" />
    <glyph glyph-name="onequarter" unicode="&#xbc;" horiz-adv-x="1888" 
d="M1419 645l-225 -278h225v278zM1817 190h-148v-190h-252v190h-463v152l488 555h227v-530h148v-177zM545 1425v-895h-264v633h-209v144h225l84 118h164zM1466 1382l-923 -1382h-240l924 1382h239z" />
    <glyph glyph-name="onehalf" unicode="&#xbd;" horiz-adv-x="2013" 
d="M545 1425v-897h-264v635h-209v144h225l84 118h164zM1466 1382l-923 -1382h-240l924 1382h239zM1219 674l-19 168q165 67 334 67q106 0 189 -26t136.5 -86t53.5 -146q0 -60 -33.5 -127.5t-89.5 -129.5t-120.5 -117t-133.5 -99h385v-178h-743v113q241 175 354 294.5
t113 208.5q0 64 -42 94.5t-110 30.5q-112 0 -274 -67z" />
    <glyph glyph-name="threequarters" unicode="&#xbe;" horiz-adv-x="2131" 
d="M72 592l80 149q154 -106 288 -106q73 0 121.5 30.5t48.5 86.5q0 21 -8.5 43.5t-27 45t-54 36.5t-82.5 14h-108v153h110q54 0 97 34.5t43 80.5q0 43 -37.5 63.5t-102.5 20.5q-122 0 -297 -59l-14 164q157 69 363 69q164 0 261 -62t97 -161q0 -76 -64 -136.5t-163 -82.5
q106 -15 182 -76.5t76 -155.5q0 -83 -60 -143t-154 -88.5t-208 -28.5q-234 0 -387 109zM1663 645l-225 -278h225v278zM2060 190h-147v-190h-252v190h-463v152l488 555h227v-530h147v-177zM1710 1382l-924 -1382h-239l923 1382h240z" />
    <glyph glyph-name="questiondown" unicode="&#xbf;" horiz-adv-x="1062" 
d="M989 -4l23 -258q-109 -53 -238 -84t-239 -31q-132 0 -234 37.5t-165.5 119t-63.5 197.5q0 85 24.5 155t63 115.5t85.5 82.5t94 65t85.5 53.5t63 55.5t24.5 65q0 30 -4 54h233q13 -47 13 -103q0 -57 -32.5 -113t-78.5 -100.5t-92 -87.5t-78.5 -89.5t-32.5 -90.5
q0 -131 209 -131q144 0 340 88zM424 907q0 89 51.5 142t151.5 53q96 0 149 -51.5t53 -132.5q0 -83 -50 -135t-152 -52q-98 0 -150.5 50.5t-52.5 125.5z" />
    <glyph glyph-name="Agrave" unicode="&#xc0;" horiz-adv-x="1431" 
d="M1030 0l-106 315h-463l-109 -315h-372l575 1462h354l543 -1462h-422zM696 1010l-135 -406h264zM905 1591l-137 -80l-469 281l264 143z" />
    <glyph glyph-name="Aacute" unicode="&#xc1;" horiz-adv-x="1431" 
d="M1030 0l-106 315h-463l-109 -315h-372l575 1462h354l543 -1462h-422zM696 1010l-135 -406h264zM600 1511l-137 80l342 344l264 -143z" />
    <glyph glyph-name="Acircumflex" unicode="&#xc2;" horiz-adv-x="1431" 
d="M1030 0l-106 315h-463l-109 -315h-372l575 1462h354l543 -1462h-422zM696 1010l-135 -406h264zM438 1470l-116 80l301 344h165l302 -344l-117 -80l-268 185z" />
    <glyph glyph-name="Atilde" unicode="&#xc3;" horiz-adv-x="1431" 
d="M1030 0l-106 315h-463l-109 -315h-372l575 1462h354l543 -1462h-422zM696 1010l-135 -406h264zM565 1862q48 0 147 -50.5t142 -50.5q73 0 115 101l137 -62q-26 -116 -100.5 -192t-159.5 -76q-42 0 -96.5 25.5t-106 51t-86.5 25.5q-71 0 -115 -102l-137 61
q28 116 102 192.5t158 76.5z" />
    <glyph glyph-name="Adieresis" unicode="&#xc4;" horiz-adv-x="1431" 
d="M1030 0l-106 315h-463l-109 -315h-372l575 1462h354l543 -1462h-422zM696 1010l-135 -406h264zM479 1550q-74 0 -120 38t-46 112q0 73 46.5 112t119.5 39q74 0 121 -39t47 -112q0 -74 -46.5 -112t-121.5 -38zM928 1550q-74 0 -120 38t-46 112q0 73 46.5 112t119.5 39
q74 0 121 -39t47 -112q0 -74 -46.5 -112t-121.5 -38z" />
    <glyph glyph-name="Aring" unicode="&#xc5;" horiz-adv-x="1431" 
d="M1030 0l-106 315h-463l-109 -315h-372l575 1462h354l543 -1462h-422zM696 1010l-135 -406h264zM463 1677q0 107 71.5 167.5t180.5 60.5t181.5 -61t72.5 -167t-72.5 -166.5t-181.5 -60.5t-180.5 60.5t-71.5 166.5zM635 1677q0 -39 22 -61.5t58 -22.5q37 0 59.5 22.5
t22.5 61.5t-22.5 61.5t-59.5 22.5q-36 0 -58 -22.5t-22 -61.5z" />
    <glyph glyph-name="AE" unicode="&#xc6;" horiz-adv-x="1822" 
d="M1153 600v-303h619v-297h-986v315h-319l-139 -315h-363l688 1456h1104v-297h-604v-274h492v-285h-492zM786 1083l-204 -479h204v479z" />
    <glyph glyph-name="Ccedilla" unicode="&#xc7;" horiz-adv-x="1304" 
d="M1167 467l107 -254q-213 -213 -475 -236l-49 -83h18q67 0 105 -44t38 -106q0 -71 -60 -127.5t-167 -56.5q-49 0 -110 11.5t-105 31.5l16 116q74 -43 146 -43q94 0 94 62q0 39 -47 51t-180 12l104 191q-112 23 -210 83t-172 150.5t-116.5 216.5t-42.5 271q0 172 59 316
t160 239.5t235.5 148.5t285.5 53q192 0 391 -90l-23 -290q-190 71 -325 71q-84 0 -153.5 -24t-125 -74.5t-86 -136.5t-30.5 -201q0 -200 100 -313t252 -113q178 0 366 168z" />
    <glyph glyph-name="Egrave" unicode="&#xc8;" horiz-adv-x="1200" 
d="M489 600v-303h660v-297h-1026v1456h1012v-297h-646v-274h533v-285h-533zM883 1591l-138 -80l-469 281l265 143z" />
    <glyph glyph-name="Eacute" unicode="&#xc9;" horiz-adv-x="1200" 
d="M489 600v-303h660v-297h-1026v1456h1012v-297h-646v-274h533v-285h-533zM537 1511l-138 80l342 344l265 -143z" />
    <glyph glyph-name="Ecircumflex" unicode="&#xca;" horiz-adv-x="1200" 
d="M489 600v-303h660v-297h-1026v1456h1012v-297h-646v-274h533v-285h-533zM373 1511l-117 80l301 344h166l301 -344l-117 -80l-268 185z" />
    <glyph glyph-name="Edieresis" unicode="&#xcb;" horiz-adv-x="1200" 
d="M489 600v-303h660v-297h-1026v1456h1012v-297h-646v-274h533v-285h-533zM416 1548q-74 0 -120 38t-46 112q0 73 46.5 112t119.5 39q74 0 121 -39t47 -112q0 -74 -46.5 -112t-121.5 -38zM864 1548q-74 0 -120 38t-46 112q0 73 46.5 112t119.5 39q74 0 121 -39t47 -112
q0 -74 -46.5 -112t-121.5 -38z" />
    <glyph glyph-name="Igrave" unicode="&#xcc;" horiz-adv-x="612" 
d="M123 0v1456h366v-1456h-366zM528 1591l-137 -80l-469 281l264 143z" />
    <glyph glyph-name="Iacute" unicode="&#xcd;" horiz-adv-x="612" 
d="M123 0v1456h366v-1456h-366zM223 1511l-137 80l342 344l264 -143z" />
    <glyph glyph-name="Icircumflex" unicode="&#xce;" horiz-adv-x="612" 
d="M123 0v1456h366v-1456h-366zM39 1511l-117 80l301 344h166l301 -344l-117 -80l-268 185z" />
    <glyph glyph-name="Idieresis" unicode="&#xcf;" horiz-adv-x="612" 
d="M123 0v1456h366v-1456h-366zM82 1548q-74 0 -120 38t-46 112q0 73 46.5 112t119.5 39q74 0 121 -39t47 -112q0 -74 -46.5 -112t-121.5 -38zM530 1548q-74 0 -119.5 38t-45.5 112q0 73 46 112t119 39q74 0 121 -39t47 -112q0 -74 -46.5 -112t-121.5 -38z" />
    <glyph glyph-name="Eth" unicode="&#xd0;" horiz-adv-x="1513" 
d="M727 0h-541v582h-166v264h166v610h541q161 0 293 -45.5t229 -133t150 -224t53 -310.5q0 -341 -195 -542t-530 -201zM762 584h-209v-287h170q163 0 250.5 123.5t87.5 316.5q0 121 -33.5 213.5t-110.5 150.5t-192 58h-172v-313h209v-262z" />
    <glyph glyph-name="Ntilde" unicode="&#xd1;" horiz-adv-x="1447" 
d="M1051 0l-625 860v-860h-303v1456h311l588 -790v790h303v-1456h-274zM584 1862q48 0 146.5 -50.5t141.5 -50.5q73 0 115 101l137 -62q-26 -116 -100.5 -192t-159.5 -76q-42 0 -96.5 25.5t-106 51t-86.5 25.5q-70 0 -114 -102l-137 61q28 116 102 192.5t158 76.5z" />
    <glyph glyph-name="Ograve" unicode="&#xd2;" horiz-adv-x="1503" 
d="M762 1475q103 0 199 -25.5t184.5 -83t153.5 -141.5t104 -209t39 -277q0 -173 -53 -317t-147 -241.5t-224 -151.5t-281 -54q-212 0 -366 93t-232 257t-78 382q0 155 40 284t107.5 217t158 149.5t190 89.5t205.5 28zM754 268q80 0 141 43t94.5 113t49.5 147t16 158
q0 76 -17 151.5t-51 144.5t-95 112t-140 43t-139.5 -43t-94.5 -112t-50.5 -144.5t-16.5 -151.5q0 -52 9.5 -110.5t32.5 -121.5t56 -113.5t86.5 -83t118.5 -32.5zM993 1591l-137 -80l-469 281l264 143z" />
    <glyph glyph-name="Oacute" unicode="&#xd3;" horiz-adv-x="1503" 
d="M762 1475q103 0 199 -25.5t184.5 -83t153.5 -141.5t104 -209t39 -277q0 -173 -53 -317t-147 -241.5t-224 -151.5t-281 -54q-212 0 -366 93t-232 257t-78 382q0 155 40 284t107.5 217t158 149.5t190 89.5t205.5 28zM754 268q80 0 141 43t94.5 113t49.5 147t16 158
q0 76 -17 151.5t-51 144.5t-95 112t-140 43t-139.5 -43t-94.5 -112t-50.5 -144.5t-16.5 -151.5q0 -52 9.5 -110.5t32.5 -121.5t56 -113.5t86.5 -83t118.5 -32.5zM647 1511l-137 80l342 344l264 -143z" />
    <glyph glyph-name="Ocircumflex" unicode="&#xd4;" horiz-adv-x="1503" 
d="M762 1475q103 0 199 -25.5t184.5 -83t153.5 -141.5t104 -209t39 -277q0 -173 -53 -317t-147 -241.5t-224 -151.5t-281 -54q-212 0 -366 93t-232 257t-78 382q0 155 40 284t107.5 217t158 149.5t190 89.5t205.5 28zM754 268q80 0 141 43t94.5 113t49.5 147t16 158
q0 76 -17 151.5t-51 144.5t-95 112t-140 43t-139.5 -43t-94.5 -112t-50.5 -144.5t-16.5 -151.5q0 -52 9.5 -110.5t32.5 -121.5t56 -113.5t86.5 -83t118.5 -32.5zM483 1511l-116 80l301 344h166l301 -344l-117 -80l-268 185z" />
    <glyph glyph-name="Otilde" unicode="&#xd5;" horiz-adv-x="1503" 
d="M762 1475q103 0 199 -25.5t184.5 -83t153.5 -141.5t104 -209t39 -277q0 -173 -53 -317t-147 -241.5t-224 -151.5t-281 -54q-212 0 -366 93t-232 257t-78 382q0 155 40 284t107.5 217t158 149.5t190 89.5t205.5 28zM754 268q80 0 141 43t94.5 113t49.5 147t16 158
q0 76 -17 151.5t-51 144.5t-95 112t-140 43t-139.5 -43t-94.5 -112t-50.5 -144.5t-16.5 -151.5q0 -52 9.5 -110.5t32.5 -121.5t56 -113.5t86.5 -83t118.5 -32.5zM610 1862q48 0 147 -50.5t142 -50.5q73 0 115 101l137 -62q-26 -116 -100.5 -192t-159.5 -76q-42 0 -96.5 25.5
t-106 51t-86.5 25.5q-71 0 -115 -102l-137 61q28 116 102 192.5t158 76.5z" />
    <glyph glyph-name="Odieresis" unicode="&#xd6;" horiz-adv-x="1503" 
d="M762 1475q103 0 199 -25.5t184.5 -83t153.5 -141.5t104 -209t39 -277q0 -173 -53 -317t-147 -241.5t-224 -151.5t-281 -54q-212 0 -366 93t-232 257t-78 382q0 155 40 284t107.5 217t158 149.5t190 89.5t205.5 28zM754 268q80 0 141 43t94.5 113t49.5 147t16 158
q0 76 -17 151.5t-51 144.5t-95 112t-140 43t-139.5 -43t-94.5 -112t-50.5 -144.5t-16.5 -151.5q0 -52 9.5 -110.5t32.5 -121.5t56 -113.5t86.5 -83t118.5 -32.5zM526 1548q-74 0 -120 38t-46 112q0 73 46.5 112t119.5 39q74 0 121 -39t47 -112q0 -74 -46.5 -112t-121.5 -38z
M975 1548q-74 0 -120 38t-46 112q0 73 46.5 112t119.5 39q74 0 121 -39t47 -112q0 -74 -46.5 -112t-121.5 -38z" />
    <glyph glyph-name="multiply" unicode="&#xd7;" horiz-adv-x="1253" 
d="M627 434l-346 -344l-209 209l344 346l-344 346l209 209l346 -344l346 344l209 -209l-344 -346l344 -346l-209 -209z" />
    <glyph glyph-name="Oslash" unicode="&#xd8;" horiz-adv-x="1503" 
d="M762 1475q231 0 405 -123l93 112l182 -47l-152 -184q152 -193 152 -494q0 -173 -53 -317t-147 -241.5t-224 -151.5t-281 -54q-231 0 -393 109l-100 -121l-183 47l156 191q-156 194 -156 506q0 155 40 284t107.5 217t158 149.5t190 89.5t205.5 28zM451 729q0 -107 32 -207
l463 563q-78 95 -194 95q-79 0 -139.5 -43t-94.5 -112t-50.5 -144.5t-16.5 -151.5zM754 268q80 0 141 43t94.5 113t49.5 147t16 158q0 95 -27 186l-461 -559q75 -88 187 -88z" />
    <glyph glyph-name="Ugrave" unicode="&#xd9;" horiz-adv-x="1380" 
d="M719 262q62 0 111 22t77.5 58t43 77.5t14.5 84.5v952h313v-932q0 -265 -157 -407t-435 -142q-124 0 -226 28t-184 87t-128 160.5t-46 238.5v967h367v-954q0 -30 7 -61t25.5 -64t46 -58t72 -41t99.5 -16zM926 1591l-138 -80l-469 281l265 143z" />
    <glyph glyph-name="Uacute" unicode="&#xda;" horiz-adv-x="1380" 
d="M719 262q62 0 111 22t77.5 58t43 77.5t14.5 84.5v952h313v-932q0 -265 -157 -407t-435 -142q-124 0 -226 28t-184 87t-128 160.5t-46 238.5v967h367v-954q0 -30 7 -61t25.5 -64t46 -58t72 -41t99.5 -16zM641 1511l-137 80l342 344l264 -143z" />
    <glyph glyph-name="Ucircumflex" unicode="&#xdb;" horiz-adv-x="1380" 
d="M719 262q62 0 111 22t77.5 58t43 77.5t14.5 84.5v952h313v-932q0 -265 -157 -407t-435 -142q-124 0 -226 28t-184 87t-128 160.5t-46 238.5v967h367v-954q0 -30 7 -61t25.5 -64t46 -58t72 -41t99.5 -16zM416 1511l-117 80l301 344h166l301 -344l-117 -80l-268 185z" />
    <glyph glyph-name="Udieresis" unicode="&#xdc;" horiz-adv-x="1380" 
d="M719 262q62 0 111 22t77.5 58t43 77.5t14.5 84.5v952h313v-932q0 -265 -157 -407t-435 -142q-124 0 -226 28t-184 87t-128 160.5t-46 238.5v967h367v-954q0 -30 7 -61t25.5 -64t46 -58t72 -41t99.5 -16zM500 1548q-74 0 -120 38t-46 112q0 73 46.5 112t119.5 39
q74 0 121 -39t47 -112q0 -74 -46.5 -112t-121.5 -38zM948 1548q-74 0 -120 38t-46 112q0 73 46.5 112t119.5 39q74 0 121 -39t47 -112q0 -74 -46.5 -112t-121.5 -38z" />
    <glyph glyph-name="Yacute" unicode="&#xdd;" horiz-adv-x="1288" 
d="M999 1456h320l-483 -868v-588h-367v588l-500 868h424l305 -559zM578 1511l-138 80l342 344l265 -143z" />
    <glyph glyph-name="Thorn" unicode="&#xde;" horiz-adv-x="1198" 
d="M492 195v-215h-369v1513h369v-213h104q84 0 163.5 -18t154.5 -59.5t131 -102t90 -152.5t34 -203q0 -109 -42 -209t-116 -175.5t-183.5 -120.5t-235.5 -45h-100zM492 983v-496h65q103 0 170.5 75.5t67.5 178.5q0 95 -66.5 168.5t-169.5 73.5h-67z" />
    <glyph glyph-name="germandbls" unicode="&#xdf;" horiz-adv-x="1341" 
d="M797 -27q-113 0 -246 60v260q53 -38 121 -66t125 -28q71 0 109 32.5t38 69.5q0 35 -22 62t-56.5 45.5t-77 37t-84.5 42t-76.5 53.5t-56.5 78.5t-22 111.5t19.5 118.5t47.5 97t56 81.5t47.5 90t19.5 105q0 62 -35 94.5t-86 32.5q-53 0 -91 -35.5t-38 -114.5v-1200h-354
v1169q0 87 27.5 155.5t72.5 112.5t108.5 73t131 41t143.5 12q72 0 135 -9t124 -33t104.5 -61.5t70.5 -98t27 -138.5q0 -57 -19.5 -109t-47 -90t-55 -72.5t-47 -73t-19.5 -75.5q0 -33 21 -60t55 -48t74.5 -43t81.5 -52t75 -67.5t55 -96.5t21 -133q0 -73 -30.5 -131t-79 -94.5
t-113 -60.5t-127.5 -34t-127 -10z" />
    <glyph glyph-name="agrave" unicode="&#xe0;" horiz-adv-x="1134" 
d="M1042 756v-756h-258l-43 94q-59 -53 -139.5 -81.5t-165.5 -28.5q-102 0 -185.5 30t-138.5 97.5t-55 162.5q0 79 35.5 142t94.5 104t142.5 68.5t173 40t191.5 14.5v49q0 156 -168 156q-122 0 -358 -57l-31 206q247 86 465 86q73 0 135.5 -10t119.5 -33.5t97.5 -60
t64 -93.5t23.5 -130zM422 319q0 -64 41.5 -96.5t101.5 -32.5q67 0 129 35v248q-52 -1 -90.5 -5.5t-74 -15t-58 -27t-36 -43.5t-13.5 -63zM778 1266l-137 -80l-469 280l264 144z" />
    <glyph glyph-name="aacute" unicode="&#xe1;" horiz-adv-x="1134" 
d="M1042 756v-756h-258l-43 94q-59 -53 -139.5 -81.5t-165.5 -28.5q-102 0 -185.5 30t-138.5 97.5t-55 162.5q0 79 35.5 142t94.5 104t142.5 68.5t173 40t191.5 14.5v49q0 156 -168 156q-122 0 -358 -57l-31 206q247 86 465 86q73 0 135.5 -10t119.5 -33.5t97.5 -60
t64 -93.5t23.5 -130zM422 319q0 -64 41.5 -96.5t101.5 -32.5q67 0 129 35v248q-52 -1 -90.5 -5.5t-74 -15t-58 -27t-36 -43.5t-13.5 -63zM514 1186l-137 80l342 344l264 -144z" />
    <glyph glyph-name="acircumflex" unicode="&#xe2;" horiz-adv-x="1134" 
d="M1042 756v-756h-258l-43 94q-59 -53 -139.5 -81.5t-165.5 -28.5q-102 0 -185.5 30t-138.5 97.5t-55 162.5q0 79 35.5 142t94.5 104t142.5 68.5t173 40t191.5 14.5v49q0 156 -168 156q-122 0 -358 -57l-31 206q247 86 465 86q73 0 135.5 -10t119.5 -33.5t97.5 -60
t64 -93.5t23.5 -130zM422 319q0 -64 41.5 -96.5t101.5 -32.5q67 0 129 35v248q-52 -1 -90.5 -5.5t-74 -15t-58 -27t-36 -43.5t-13.5 -63zM307 1186l-117 80l302 344h165l301 -344l-116 -80l-269 184z" />
    <glyph glyph-name="atilde" unicode="&#xe3;" horiz-adv-x="1134" 
d="M1042 756v-756h-258l-43 94q-59 -53 -139.5 -81.5t-165.5 -28.5q-102 0 -185.5 30t-138.5 97.5t-55 162.5q0 79 35.5 142t94.5 104t142.5 68.5t173 40t191.5 14.5v49q0 156 -168 156q-122 0 -358 -57l-31 206q247 86 465 86q73 0 135.5 -10t119.5 -33.5t97.5 -60
t64 -93.5t23.5 -130zM422 319q0 -64 41.5 -96.5t101.5 -32.5q67 0 129 35v248q-52 -1 -90.5 -5.5t-74 -15t-58 -27t-36 -43.5t-13.5 -63zM436 1536q48 0 147 -50t142 -50q73 0 115 100l137 -61q-26 -116 -100.5 -192.5t-159.5 -76.5q-42 0 -96.5 26t-106 51.5t-86.5 25.5
q-70 0 -115 -103l-137 62q28 116 102 192t158 76z" />
    <glyph glyph-name="adieresis" unicode="&#xe4;" horiz-adv-x="1134" 
d="M1042 756v-756h-258l-43 94q-59 -53 -139.5 -81.5t-165.5 -28.5q-102 0 -185.5 30t-138.5 97.5t-55 162.5q0 79 35.5 142t94.5 104t142.5 68.5t173 40t191.5 14.5v49q0 156 -168 156q-122 0 -358 -57l-31 206q247 86 465 86q73 0 135.5 -10t119.5 -33.5t97.5 -60
t64 -93.5t23.5 -130zM422 319q0 -64 41.5 -96.5t101.5 -32.5q67 0 129 35v248q-52 -1 -90.5 -5.5t-74 -15t-58 -27t-36 -43.5t-13.5 -63zM360 1233q-74 0 -119.5 37.5t-45.5 111.5t46 113t119 39q74 0 121 -39t47 -113t-46 -111.5t-122 -37.5zM809 1233q-74 0 -120 38
t-46 111t46.5 112.5t119.5 39.5q74 0 121 -39t47 -113t-46 -111.5t-122 -37.5z" />
    <glyph glyph-name="aring" unicode="&#xe5;" horiz-adv-x="1134" 
d="M1042 756v-756h-258l-43 94q-59 -53 -139.5 -81.5t-165.5 -28.5q-102 0 -185.5 30t-138.5 97.5t-55 162.5q0 79 35.5 142t94.5 104t142.5 68.5t173 40t191.5 14.5v49q0 156 -168 156q-122 0 -358 -57l-31 206q247 86 465 86q73 0 135.5 -10t119.5 -33.5t97.5 -60
t64 -93.5t23.5 -130zM422 319q0 -64 41.5 -96.5t101.5 -32.5q67 0 129 35v248q-52 -1 -90.5 -5.5t-74 -15t-58 -27t-36 -43.5t-13.5 -63zM324 1372q0 107 71 167t180 60t181.5 -60.5t72.5 -166.5t-72.5 -166.5t-181.5 -60.5t-180 60t-71 167zM496 1372q0 -39 21.5 -61.5
t57.5 -22.5q37 0 59.5 22.5t22.5 61.5t-22.5 61.5t-59.5 22.5q-36 0 -57.5 -22.5t-21.5 -61.5z" />
    <glyph glyph-name="ae" unicode="&#xe6;" horiz-adv-x="1814" 
d="M1636 330l103 -185q-98 -84 -222.5 -128t-254.5 -44q-259 0 -416 168q-171 -157 -412 -157q-101 0 -184.5 30t-138 97.5t-54.5 162.5q0 79 35 142t94 104t142.5 68.5t173 40t192.5 14.5v49q0 156 -170 156q-122 0 -356 -57l-31 206q243 86 465 86q101 0 189 -29.5
t145 -86.5q129 102 319 102q112 0 201 -28.5t156.5 -87t104 -154.5t36.5 -224q0 -68 -2 -88h-688q4 -140 74.5 -216t175.5 -76q122 0 323 135zM420 319q0 -64 41.5 -96.5t103.5 -32.5q67 0 129 35v248q-65 -2 -111 -9t-85 -23t-58.5 -46.5t-19.5 -75.5zM1063 662h344
q-3 97 -43 161t-109 64q-75 0 -127.5 -64.5t-64.5 -160.5z" />
    <glyph glyph-name="ccedilla" unicode="&#xe7;" horiz-adv-x="1069" 
d="M950 352l88 -188q-171 -157 -376 -180l-50 -86h11q72 0 111.5 -44t39.5 -108q0 -70 -62.5 -127t-172.5 -57q-120 0 -222 45l17 125q83 -49 153 -49q84 0 84 57q0 37 -46.5 49t-180.5 12l109 195q-179 43 -287.5 181t-108.5 331q0 245 162 403t418 158q194 0 350 -90
l-29 -221q-183 88 -288 88q-112 0 -178 -80.5t-66 -235.5q0 -327 201 -327q67 0 153 38t170 111z" />
    <glyph glyph-name="egrave" unicode="&#xe8;" horiz-adv-x="1163" 
d="M997 330l101 -185q-96 -84 -220 -128t-255 -44q-113 0 -213.5 34t-180.5 99t-127 170t-47 236q0 160 70.5 286.5t199 198.5t291.5 72q112 0 201 -28.5t156 -87t103 -154.5t36 -224q0 -68 -2 -88h-686q4 -140 74.5 -216t175.5 -76q122 0 323 135zM424 662h344
q-3 97 -43 161t-109 64q-75 0 -127.5 -64.5t-64.5 -160.5zM782 1266l-137 -80l-469 280l264 144z" />
    <glyph glyph-name="eacute" unicode="&#xe9;" horiz-adv-x="1163" 
d="M997 330l101 -185q-96 -84 -220 -128t-255 -44q-113 0 -213.5 34t-180.5 99t-127 170t-47 236q0 160 70.5 286.5t199 198.5t291.5 72q112 0 201 -28.5t156 -87t103 -154.5t36 -224q0 -68 -2 -88h-686q4 -140 74.5 -216t175.5 -76q122 0 323 135zM424 662h344
q-3 97 -43 161t-109 64q-75 0 -127.5 -64.5t-64.5 -160.5zM518 1186l-137 80l342 344l264 -144z" />
    <glyph glyph-name="ecircumflex" unicode="&#xea;" horiz-adv-x="1163" 
d="M997 330l101 -185q-96 -84 -220 -128t-255 -44q-113 0 -213.5 34t-180.5 99t-127 170t-47 236q0 160 70.5 286.5t199 198.5t291.5 72q112 0 201 -28.5t156 -87t103 -154.5t36 -224q0 -68 -2 -88h-686q4 -140 74.5 -216t175.5 -76q122 0 323 135zM424 662h344
q-3 97 -43 161t-109 64q-75 0 -127.5 -64.5t-64.5 -160.5zM354 1186l-116 80l301 344h166l301 -344l-117 -80l-268 184z" />
    <glyph glyph-name="edieresis" unicode="&#xeb;" horiz-adv-x="1163" 
d="M997 330l101 -185q-96 -84 -220 -128t-255 -44q-113 0 -213.5 34t-180.5 99t-127 170t-47 236q0 160 70.5 286.5t199 198.5t291.5 72q112 0 201 -28.5t156 -87t103 -154.5t36 -224q0 -68 -2 -88h-686q4 -140 74.5 -216t175.5 -76q122 0 323 135zM424 662h344
q-3 97 -43 161t-109 64q-75 0 -127.5 -64.5t-64.5 -160.5zM397 1233q-74 0 -120 38t-46 111t46.5 112.5t119.5 39.5q74 0 121 -39t47 -113t-46 -111.5t-122 -37.5zM846 1233q-74 0 -120 38t-46 111t46.5 112.5t119.5 39.5q74 0 121 -39t47 -113t-46 -111.5t-122 -37.5z" />
    <glyph glyph-name="igrave" unicode="&#xec;" 
d="M465 1049v-1049h-352v1049h352zM492 1266l-138 -80l-469 280l265 144z" />
    <glyph glyph-name="iacute" unicode="&#xed;" 
d="M465 1049v-1049h-352v1049h352zM227 1186l-137 80l342 344l264 -144z" />
    <glyph glyph-name="icircumflex" unicode="&#xee;" 
d="M465 1049v-1049h-352v1049h352zM23 1186l-117 80l301 344h166l301 -344l-117 -80l-268 184z" />
    <glyph glyph-name="idieresis" unicode="&#xef;" 
d="M465 1049v-1049h-352v1049h352zM66 1233q-74 0 -120 38t-46 111t46.5 112.5t119.5 39.5q74 0 120.5 -39t46.5 -113t-46 -111.5t-121 -37.5zM514 1233q-74 0 -120 38t-46 111t46.5 112.5t119.5 39.5q74 0 121 -39t47 -113t-46 -111.5t-122 -37.5z" />
    <glyph glyph-name="eth" unicode="&#xf0;" horiz-adv-x="1243" 
d="M371 1212l88 56q-165 68 -357 71l58 211q334 0 571 -114l279 174v-232l-95 -59q128 -108 199.5 -262.5t71.5 -347.5q0 -166 -36.5 -299t-109 -231t-187.5 -151t-265 -53q-237 0 -384 127.5t-147 350.5q0 111 35.5 200.5t97 145.5t141.5 86t171 30q161 0 305 -81
q-21 178 -168 315q-239 -151 -268 -168v231zM600 166q103 0 161.5 112t59.5 334q-112 76 -200 76q-85 0 -138 -66t-53 -190q0 -117 50.5 -191.5t119.5 -74.5z" />
    <glyph glyph-name="ntilde" unicode="&#xf1;" horiz-adv-x="1210" 
d="M1118 737v-737h-352v655q0 91 -33.5 138t-120.5 47q-41 0 -145 -31v-809h-354v1049h303l24 -68q142 109 326 109q84 0 149 -24.5t102 -61t61 -86t32 -93t8 -88.5zM467 1536q48 0 147 -50t142 -50q72 0 114 100l138 -61q-26 -116 -100.5 -192.5t-159.5 -76.5
q-42 0 -96.5 26t-106 51.5t-86.5 25.5q-70 0 -115 -103l-137 62q28 116 102 192t158 76z" />
    <glyph glyph-name="ograve" unicode="&#xf2;" horiz-adv-x="1249" 
d="M631 1069q254 0 407.5 -144.5t153.5 -392.5q0 -117 -38 -218t-108.5 -177t-180 -120t-244.5 -44q-134 0 -242 42t-177.5 115t-107 170.5t-37.5 211.5q0 163 67 288t198.5 197t308.5 72zM623 877q-67 0 -112.5 -48.5t-64 -122.5t-18.5 -169q0 -92 13.5 -161.5t33.5 -108.5
t48 -63t52.5 -31t51.5 -7q31 0 56.5 7.5t52.5 30.5t45.5 60.5t30 102.5t11.5 151q0 160 -52 259.5t-148 99.5zM827 1266l-137 -80l-469 280l264 144z" />
    <glyph glyph-name="oacute" unicode="&#xf3;" horiz-adv-x="1249" 
d="M631 1069q254 0 407.5 -144.5t153.5 -392.5q0 -117 -38 -218t-108.5 -177t-180 -120t-244.5 -44q-134 0 -242 42t-177.5 115t-107 170.5t-37.5 211.5q0 163 67 288t198.5 197t308.5 72zM623 877q-67 0 -112.5 -48.5t-64 -122.5t-18.5 -169q0 -92 13.5 -161.5t33.5 -108.5
t48 -63t52.5 -31t51.5 -7q31 0 56.5 7.5t52.5 30.5t45.5 60.5t30 102.5t11.5 151q0 160 -52 259.5t-148 99.5zM481 1186l-137 80l342 344l264 -144z" />
    <glyph glyph-name="ocircumflex" unicode="&#xf4;" horiz-adv-x="1249" 
d="M631 1069q254 0 407.5 -144.5t153.5 -392.5q0 -117 -38 -218t-108.5 -177t-180 -120t-244.5 -44q-134 0 -242 42t-177.5 115t-107 170.5t-37.5 211.5q0 163 67 288t198.5 197t308.5 72zM623 877q-67 0 -112.5 -48.5t-64 -122.5t-18.5 -169q0 -92 13.5 -161.5t33.5 -108.5
t48 -63t52.5 -31t51.5 -7q31 0 56.5 7.5t52.5 30.5t45.5 60.5t30 102.5t11.5 151q0 160 -52 259.5t-148 99.5zM358 1186l-116 80l301 344h166l301 -344l-117 -80l-268 184z" />
    <glyph glyph-name="otilde" unicode="&#xf5;" horiz-adv-x="1249" 
d="M631 1069q254 0 407.5 -144.5t153.5 -392.5q0 -117 -38 -218t-108.5 -177t-180 -120t-244.5 -44q-134 0 -242 42t-177.5 115t-107 170.5t-37.5 211.5q0 163 67 288t198.5 197t308.5 72zM623 877q-67 0 -112.5 -48.5t-64 -122.5t-18.5 -169q0 -92 13.5 -161.5t33.5 -108.5
t48 -63t52.5 -31t51.5 -7q31 0 56.5 7.5t52.5 30.5t45.5 60.5t30 102.5t11.5 151q0 160 -52 259.5t-148 99.5zM485 1536q48 0 147 -50t142 -50q73 0 115 100l137 -61q-26 -116 -100.5 -192.5t-159.5 -76.5q-42 0 -96.5 26t-106 51.5t-86.5 25.5q-70 0 -115 -103l-137 62
q28 116 102 192t158 76z" />
    <glyph glyph-name="odieresis" unicode="&#xf6;" horiz-adv-x="1249" 
d="M631 1069q254 0 407.5 -144.5t153.5 -392.5q0 -117 -38 -218t-108.5 -177t-180 -120t-244.5 -44q-134 0 -242 42t-177.5 115t-107 170.5t-37.5 211.5q0 163 67 288t198.5 197t308.5 72zM623 877q-67 0 -112.5 -48.5t-64 -122.5t-18.5 -169q0 -92 13.5 -161.5t33.5 -108.5
t48 -63t52.5 -31t51.5 -7q31 0 56.5 7.5t52.5 30.5t45.5 60.5t30 102.5t11.5 151q0 160 -52 259.5t-148 99.5zM401 1233q-74 0 -119.5 37.5t-45.5 111.5t46 113t119 39q74 0 121 -39t47 -113t-46 -111.5t-122 -37.5zM850 1233q-74 0 -120 38t-46 111t46.5 112.5t119.5 39.5
q74 0 121 -39t47 -113t-46 -111.5t-122 -37.5z" />
    <glyph glyph-name="divide" unicode="&#xf7;" horiz-adv-x="1253" 
d="M829 1120q0 -89 -51 -141.5t-151 -52.5q-97 0 -150 51.5t-53 132.5q0 83 50.5 134.5t152.5 51.5q98 0 150 -50.5t52 -125.5zM829 195q0 -90 -51 -142.5t-151 -52.5q-97 0 -150 51.5t-53 132.5q0 83 50.5 135t152.5 52q98 0 150 -50.5t52 -125.5zM82 797h1089v-297h-1089
v297z" />
    <glyph glyph-name="oslash" unicode="&#xf8;" horiz-adv-x="1257" 
d="M63 10l125 140q-127 149 -127 362q0 163 67 288t198.5 197t308.5 72q179 0 323 -82q12 15 42 45t42 45l132 -37l-117 -131q139 -152 139 -377q0 -117 -38 -218t-108.5 -177t-180 -120t-244.5 -44q-207 0 -344 95l-84 -95zM827 518q0 79 -10 133l-344 -375
q51 -110 158 -110q31 0 56.5 7.5t52.5 30.5t45.5 60.5t30 102.5t11.5 151zM627 877q-67 0 -112.5 -48.5t-64 -122.5t-18.5 -169q0 -65 6 -117l334 364q-59 93 -145 93z" />
    <glyph glyph-name="ugrave" unicode="&#xf9;" horiz-adv-x="1208" 
d="M1096 1049v-1049h-281l-41 80q-78 -51 -164 -80t-157 -29q-161 0 -261 103t-100 266v709h354v-627q0 -215 140 -215q62 0 157 31v811h353zM807 1266l-137 -80l-469 280l264 144z" />
    <glyph glyph-name="uacute" unicode="&#xfa;" horiz-adv-x="1208" 
d="M1096 1049v-1049h-281l-41 80q-78 -51 -164 -80t-157 -29q-161 0 -261 103t-100 266v709h354v-627q0 -215 140 -215q62 0 157 31v811h353zM522 1186l-137 80l342 344l264 -144z" />
    <glyph glyph-name="ucircumflex" unicode="&#xfb;" horiz-adv-x="1208" 
d="M1096 1049v-1049h-281l-41 80q-78 -51 -164 -80t-157 -29q-161 0 -261 103t-100 266v709h354v-627q0 -215 140 -215q62 0 157 31v811h353zM338 1186l-117 80l301 344h166l301 -344l-117 -80l-268 184z" />
    <glyph glyph-name="udieresis" unicode="&#xfc;" horiz-adv-x="1208" 
d="M1096 1049v-1049h-281l-41 80q-78 -51 -164 -80t-157 -29q-161 0 -261 103t-100 266v709h354v-627q0 -215 140 -215q62 0 157 31v811h353zM381 1233q-74 0 -120 38t-46 111t46.5 112.5t119.5 39.5q74 0 121 -39t47 -113t-46 -111.5t-122 -37.5zM829 1233
q-74 0 -119.5 37.5t-45.5 111.5t46 113t119 39q74 0 121 -39t47 -113t-46 -111.5t-122 -37.5z" />
    <glyph glyph-name="yacute" unicode="&#xfd;" horiz-adv-x="1028" 
d="M360 1049l199 -592l215 592h285l-457 -1174q-64 -165 -133 -229t-201 -64q-74 0 -200 27v184q66 -9 113 -8.5t82.5 28t64.5 89.5l59 129l-403 1018h376zM440 1186l-137 80l342 344l264 -144z" />
    <glyph glyph-name="thorn" unicode="&#xfe;" horiz-adv-x="1243" 
d="M467 1534v-535q125 91 281 91q131 0 231 -73t151.5 -193t51.5 -267q0 -258 -145 -423t-371 -165q-101 0 -199 43v-418h-354v1940h354zM616 831q-51 0 -149 -30v-559q77 -35 137 -35q213 0 213 313q0 152 -47.5 231.5t-153.5 79.5z" />
    <glyph glyph-name="ydieresis" unicode="&#xff;" horiz-adv-x="1028" 
d="M360 1049l199 -592l215 592h285l-457 -1174q-64 -165 -133 -229t-201 -64q-74 0 -200 27v184q66 -9 113 -8.5t82.5 28t64.5 89.5l59 129l-403 1018h376zM340 1233q-74 0 -120 38t-46 111t46.5 112.5t119.5 39.5q74 0 121 -39t47 -113t-46 -111.5t-122 -37.5zM788 1233
q-74 0 -119.5 37.5t-45.5 111.5t46 113t119 39q74 0 121 -39t47 -113t-46 -111.5t-122 -37.5z" />
    <glyph glyph-name="dotlessi" unicode="&#x131;" 
d="M465 1049v-1049h-352v1049h352z" />
    <glyph glyph-name="Lslash" unicode="&#x141;" horiz-adv-x="1120" 
d="M676 918l-158 -95v-526h572v-297h-940v604l-130 -76v222l130 75v631h368v-412l158 95v-221z" />
    <glyph glyph-name="lslash" unicode="&#x142;" horiz-adv-x="638" 
d="M618 907l-122 -78v-829h-353v610q-15 -9 -58.5 -38t-64.5 -42v232l123 76v696h353v-475q16 10 59 38.5t63 41.5v-232z" />
    <glyph glyph-name="OE" unicode="&#x152;" horiz-adv-x="2074" 
d="M711 1475q222 0 358 -113v94h940v-297h-604v-274h491v-285h-491v-303h618v-297h-954v94q-145 -119 -375 -119q-289 0 -461 202t-172 530q0 154 39.5 283.5t105 217.5t150.5 149.5t175 89.5t180 28zM754 268q80 0 141 43t94.5 113t49.5 147t16 158q0 76 -17 151.5
t-51 144.5t-95 112t-140 43t-139.5 -43t-94.5 -112t-50.5 -144.5t-16.5 -151.5q0 -52 9.5 -110.5t32.5 -121.5t56 -113.5t86.5 -83t118.5 -32.5z" />
    <glyph glyph-name="oe" unicode="&#x153;" horiz-adv-x="1943" 
d="M1767 330l101 -185q-96 -84 -220 -128t-255 -44q-249 0 -385 164q-132 -164 -383 -164q-134 0 -242.5 42t-178 115t-106.5 170.5t-37 211.5q0 249 153 403t421 154q237 0 381 -156q69 85 159.5 120.5t210.5 35.5q112 0 201 -28.5t156 -87t103 -154.5t36 -224
q0 -68 -2 -88h-686v-8q6 -139 75 -211.5t175 -72.5q122 0 323 135zM627 877q-52 0 -91 -27.5t-61.5 -75.5t-33.5 -107.5t-11 -129.5q0 -92 13.5 -161.5t33.5 -108.5t48.5 -62.5t53 -31t52.5 -7.5q31 0 56.5 7.5t52 30.5t44.5 60.5t29.5 102.5t11.5 151q0 160 -51.5 259.5
t-146.5 99.5zM1194 662h344q-3 97 -43 161t-109 64q-77 0 -128 -64t-64 -161z" />
    <glyph glyph-name="Scaron" unicode="&#x160;" horiz-adv-x="1142" 
d="M74 1063q0 194 134 304t343 110q99 0 223 -25t232 -72l-31 -272q-68 30 -181.5 60t-195.5 30q-88 0 -133 -23t-45 -83q0 -24 13.5 -45.5t31 -36.5t55 -34t65 -30.5t81.5 -32.5q48 -19 85 -35.5t83.5 -42.5t81 -52t69 -63.5t57 -78t36.5 -93.5t14 -112q0 -96 -28.5 -174
t-78 -130.5t-117.5 -88t-144 -51t-161 -15.5q-132 0 -273 41.5t-259 114.5l55 264q102 -62 223 -108.5t219 -46.5q52 0 90.5 11t59 27t33 37.5t15.5 38t3 33.5q0 42 -15.5 73t-58.5 57.5t-73 39.5t-103 41q-7 3 -10 4q-49 18 -82.5 32.5t-78.5 38t-75 47.5t-62.5 59
t-52 74.5t-32 92.5t-12.5 115zM176 1855l117 80l266 -184l268 184l117 -80l-301 -344h-166z" />
    <glyph glyph-name="scaron" unicode="&#x161;" horiz-adv-x="1021" 
d="M502 -27q-115 0 -236 30.5t-215 78.5l27 235q89 -59 207.5 -98t206.5 -39q71 0 110 21t39 75q0 32 -25 56t-65.5 38t-93 30t-106.5 31t-106.5 42.5t-93 62.5t-65.5 93t-25 133q0 78 37 139t100 96.5t140.5 53.5t165.5 18q196 0 352 -84l-20 -207q-62 31 -158.5 59.5
t-163.5 28.5q-121 0 -121 -82q0 -31 32 -51.5t83 -34t112.5 -27.5t123 -39t112.5 -61.5t83 -102t32 -153.5q0 -89 -38 -156.5t-104.5 -107t-148.5 -59t-178 -19.5zM127 1530l117 80l266 -185l268 185l117 -80l-301 -344h-166z" />
    <glyph glyph-name="Ydieresis" unicode="&#x178;" horiz-adv-x="1331" 
d="M1024 1456h319l-483 -868v-588h-366v588l-500 868h424l305 -559zM502 1548q-74 0 -120 38t-46 112q0 73 46.5 112t119.5 39q74 0 121 -39t47 -112q0 -74 -46.5 -112t-121.5 -38zM950 1548q-74 0 -120 38t-46 112q0 73 46.5 112t119.5 39q74 0 121 -39t47 -112
q0 -74 -46.5 -112t-121.5 -38z" />
    <glyph glyph-name="Zcaron" unicode="&#x17d;" horiz-adv-x="1245" 
d="M1176 1247l-654 -950h662v-297h-1133v205l656 954h-607v297h1076v-209zM215 1855l117 80l266 -184l268 184l117 -80l-301 -344h-166z" />
    <glyph glyph-name="zcaron" unicode="&#x17e;" horiz-adv-x="1044" 
d="M989 0h-946v133l496 696h-455v220h901v-123l-506 -703h510v-223zM137 1530l117 80l266 -185l268 185l117 -80l-301 -344h-166z" />
    <glyph glyph-name="florin" unicode="&#x192;" horiz-adv-x="716" 
d="M160 -92v913h-156v228h156v155q0 97 29.5 167.5t83 110.5t120 58.5t148.5 18.5q120 0 288 -50l-26 -204q-120 18 -172 18q-80 0 -105.5 -31t-25.5 -94v-149h245v-228h-245v-903q0 -97 -26 -167.5t-73 -111t-106 -59t-133 -18.5q-113 0 -268 49l26 209q104 -23 137 -23
q59 0 81 30t22 81z" />
    <glyph glyph-name="circumflex" unicode="&#x2c6;" horiz-adv-x="909" 
d="M186 1186l-116 80l301 344h166l301 -344l-117 -80l-268 184z" />
    <glyph glyph-name="caron" unicode="&#x2c7;" horiz-adv-x="909" 
d="M70 1530l116 80l267 -185l268 185l117 -80l-301 -344h-166z" />
    <glyph glyph-name="breve" unicode="&#x2d8;" horiz-adv-x="835" 
d="M307 1470q0 -64 29.5 -99.5t85.5 -35.5q58 0 92.5 36.5t34.5 98.5h235q0 -82 -27.5 -143.5t-78 -98.5t-115.5 -55t-145 -18q-161 0 -264 83t-103 232h256z" />
    <glyph glyph-name="ring" unicode="&#x2da;" horiz-adv-x="608" 
d="M51 1372q0 106 71.5 166.5t180.5 60.5t181.5 -60.5t72.5 -166.5t-72.5 -166.5t-181.5 -60.5t-180.5 60.5t-71.5 166.5zM223 1372q0 -39 22 -61.5t58 -22.5q37 0 59.5 22.5t22.5 61.5t-22.5 61.5t-59.5 22.5q-36 0 -58 -22.5t-22 -61.5z" />
    <glyph glyph-name="tilde" unicode="&#x2dc;" horiz-adv-x="903" 
d="M311 1536q48 0 147 -50t142 -50q73 0 115 100l137 -61q-26 -116 -100.5 -192.5t-159.5 -76.5q-42 0 -96.5 26t-106 51.5t-86.5 25.5q-70 0 -115 -103l-137 62q28 116 102 192t158 76z" />
    <glyph glyph-name="pi" unicode="&#x3c0;" horiz-adv-x="1976" 
d="M700 1405l465 -612h445l88 -29q49 -17 53 -59q-4 -48 -55 -64l-86 -29h-443l-467 -612h-90l242 487v125h-244l-176 39l-127 -174h-41l41 199l-80 18v21l82 14l-43 199h41l125 -172l178 37h242v129l-240 483h90z" />
    <glyph glyph-name="afii10023" unicode="&#x401;" horiz-adv-x="1200" 
d="M489 600v-303h660v-297h-1026v1456h1012v-297h-646v-274h533v-285h-533zM412 1548q-74 0 -120 38t-46 112q0 73 46.5 112t119.5 39q74 0 121 -39t47 -112q0 -74 -46.5 -112t-121.5 -38zM860 1548q-74 0 -120 38t-46 112q0 73 46.5 112t119.5 39q74 0 121 -39t47 -112
q0 -74 -46.5 -112t-121.5 -38z" />
    <glyph glyph-name="afii10051" unicode="&#x402;" horiz-adv-x="1589" 
d="M791 680v-680h-367v1159h-410v297h1188v-297h-411v-293q147 119 350 119q81 0 154.5 -30t133 -88.5t95 -154t35.5 -216.5q0 -120 -27 -213t-70 -150.5t-103 -94.5t-120 -51t-127 -14q-89 0 -178 21v196h16q125 0 183.5 75t58.5 229q0 130 -52.5 185.5t-135.5 55.5
q-91 0 -213 -55z" />
    <glyph glyph-name="afii10052" unicode="&#x403;" horiz-adv-x="1093" 
d="M1085 1456v-297h-593v-1159h-369v1456h962zM524 1511l-137 80l342 344l264 -143z" />
    <glyph glyph-name="afii10053" unicode="&#x404;" horiz-adv-x="1341" 
d="M948 584h-495q18 -151 94.5 -225t200.5 -74q188 0 460 168l103 -273q-323 -215 -606 -215q-140 0 -257.5 51.5t-203.5 148.5t-134.5 246t-48.5 334q0 228 93 395t254 252t370 85q203 0 455 -95l-25 -292q-281 86 -413 86q-288 0 -336 -281h489v-311z" />
    <glyph glyph-name="afii10054" unicode="&#x405;" horiz-adv-x="1142" 
d="M74 1063q0 194 134 304t343 110q99 0 223 -25t232 -72l-31 -272q-68 30 -181.5 60t-195.5 30q-88 0 -133 -23t-45 -83q0 -24 13.5 -45.5t31 -36.5t55 -34t65 -30.5t81.5 -32.5q48 -19 85 -35.5t83.5 -42.5t81 -52t69 -63.5t57 -78t36.5 -93.5t14 -112q0 -96 -28.5 -174
t-78 -130.5t-117.5 -88t-144 -51t-161 -15.5q-132 0 -273 41.5t-259 114.5l55 264q102 -62 223 -108.5t219 -46.5q52 0 90.5 11t59 27t33 37.5t15.5 38t3 33.5q0 42 -15.5 73t-58.5 57.5t-73 39.5t-103 41q-7 3 -10 4q-49 18 -82.5 32.5t-78.5 38t-75 47.5t-62.5 59
t-52 74.5t-32 92.5t-12.5 115z" />
    <glyph glyph-name="afii10055" unicode="&#x406;" horiz-adv-x="612" 
d="M123 0v1456h366v-1456h-366z" />
    <glyph glyph-name="afii10056" unicode="&#x407;" horiz-adv-x="612" 
d="M123 0v1456h366v-1456h-366zM80 1548q-74 0 -120 38t-46 112q0 73 46.5 112t119.5 39q74 0 121 -39t47 -112q0 -74 -46.5 -112t-121.5 -38zM528 1548q-74 0 -120 38t-46 112q0 73 46.5 112t119.5 39q74 0 121 -39t47 -112q0 -74 -46.5 -112t-121.5 -38z" />
    <glyph glyph-name="afii10057" unicode="&#x408;" horiz-adv-x="614" 
d="M-109 -303v268q70 -4 86 -4q80 0 113 41t33 156v1298h369v-1323q0 -465 -386 -465q-90 0 -215 29z" />
    <glyph glyph-name="afii10058" unicode="&#x409;" horiz-adv-x="2084" 
d="M20 29v270q28 -4 39 -4q157 0 219 228.5t62 762.5v170h977v-516h196q77 0 151 -14.5t145.5 -50t125 -88t86.5 -134t33 -182.5q0 -122 -44.5 -215t-121 -147.5t-170 -81.5t-200.5 -27h-570v1159h-278q-1 -189 -10.5 -340.5t-30 -287t-54.5 -233t-82.5 -169.5t-116 -107.5
t-153.5 -35.5q-92 0 -203 43zM1317 643v-346h194q74 0 117 55t43 127q0 69 -40.5 116.5t-117.5 47.5h-196z" />
    <glyph glyph-name="afii10059" unicode="&#x40a;" horiz-adv-x="2093" 
d="M1319 940h197q77 0 150.5 -14.5t145.5 -50t125 -88t86 -134t33 -182.5q0 -122 -44.5 -215t-121 -147.5t-170 -81.5t-200.5 -27h-570v637h-458v-637h-369v1456h369v-516h458v516h369v-516zM1319 643v-346h194q74 0 117 55t43 127q0 69 -40 116.5t-117 47.5h-197z" />
    <glyph glyph-name="afii10060" unicode="&#x40b;" horiz-adv-x="1599" 
d="M1151 0v535q0 68 -11.5 110t-37 61t-51 24t-68.5 5q-13 0 -25 -1t-25 -3.5t-23 -4.5t-23 -6.5t-20.5 -7t-21 -8.5t-18.5 -8t-19 -8.5t-17 -7.5v-680h-367v1159h-410v297h1188v-297h-411v-293q79 64 150 91.5t159 27.5q83 0 155 -24t132.5 -74t95.5 -140t35 -210v-537
h-367z" />
    <glyph glyph-name="afii10061" unicode="&#x40c;" horiz-adv-x="1431" 
d="M123 0v1456h369v-567h86l372 567h422l-491 -711q523 -692 563 -745h-479l-404 573h-69v-573h-369zM651 1511l-137 80l342 344l264 -143z" />
    <glyph glyph-name="afii10062" unicode="&#x40e;" horiz-adv-x="1320" 
d="M295 272q52 0 92.5 11t79.5 42.5t65 84.5l-542 1046h422l315 -649l262 649h363l-455 -1048q-94 -217 -213.5 -322.5t-300.5 -105.5q-93 0 -201 24v277q11 -1 53 -5t60 -4zM596 1751q0 -49 32.5 -74.5t78.5 -25.5q45 0 77.5 25.5t32.5 74.5v27h256v-31q0 -256 -366 -256
q-367 0 -367 256v31h256v-27z" />
    <glyph glyph-name="afii10145" unicode="&#x40f;" horiz-adv-x="1427" 
d="M492 1456v-1159h444v1159h369v-1456h-428l-35 -336h-256l-37 336h-426v1456h369z" />
    <glyph glyph-name="afii10017" unicode="&#x410;" horiz-adv-x="1372" 
d="M1032 0l-110 324h-502l-113 -324h-338l586 1462h293l555 -1462h-371zM674 1057l-166 -477h328z" />
    <glyph glyph-name="afii10018" unicode="&#x411;" horiz-adv-x="1300" 
d="M489 920h185q121 0 218.5 -26t161.5 -69.5t106.5 -103.5t60.5 -125t18 -137q0 -90 -30 -169t-93 -145.5t-175 -105.5t-261 -39h-557v1456h1010v-297h-644v-239zM489 629v-332h191q81 0 126.5 48.5t45.5 115.5q0 68 -47 118t-131 50h-185z" />
    <glyph glyph-name="afii10019" unicode="&#x412;" horiz-adv-x="1296" 
d="M1196 1067q0 -98 -61 -183.5t-156 -115.5q120 -40 193 -133.5t73 -208.5q0 -77 -19 -140.5t-50.5 -107t-76.5 -76.5t-92 -52t-103.5 -30.5t-104 -15.5t-99.5 -4h-577v1456h575q107 0 192.5 -19.5t156.5 -62.5t110 -121t39 -186zM489 612v-336h197q84 0 132 41.5t48 114.5
q0 80 -52.5 130t-145.5 50h-179zM489 1180v-306h185q69 0 108 50.5t39 113.5q0 55 -36 98.5t-109 43.5h-187z" />
    <glyph glyph-name="afii10020" unicode="&#x413;" horiz-adv-x="1093" 
d="M1085 1456v-297h-593v-1159h-369v1456h962z" />
    <glyph glyph-name="afii10021" unicode="&#x414;" horiz-adv-x="1558" 
d="M965 1159h-267q-10 -485 -168 -862h435v862zM-6 297h176q116 203 159.5 432.5t43.5 493.5v233h960v-1159h201l-68 -633h-282v336h-842v-336h-283z" />
    <glyph glyph-name="afii10022" unicode="&#x415;" horiz-adv-x="1200" 
d="M489 600v-303h660v-297h-1026v1456h1012v-297h-646v-274h533v-285h-533z" />
    <glyph glyph-name="afii10024" unicode="&#x416;" horiz-adv-x="2156" 
d="M893 1456h369v-567h88l333 567h420l-450 -711l522 -745h-479l-363 573h-71v-573h-369v573h-80l-362 -573h-469l522 748l-451 708h430l332 -567h78v567z" />
    <glyph glyph-name="afii10025" unicode="&#x417;" horiz-adv-x="1183" 
d="M1133 440q0 -97 -30.5 -175t-83 -130.5t-125 -88t-153 -51t-170.5 -15.5q-136 0 -278 37.5t-252 101.5l94 270q69 -39 187.5 -73.5t214.5 -34.5q99 0 155 47t56 112t-56.5 113.5t-154.5 48.5h-222v293h217q86 0 136.5 42.5t50.5 98.5q0 55 -52.5 94t-152.5 39
q-95 0 -208 -24t-185 -51l-15 278q264 105 469 105q121 0 221 -33t165.5 -88.5t101 -128.5t35.5 -154q0 -94 -60 -176.5t-153 -130.5q108 -42 178 -127.5t70 -198.5z" />
    <glyph glyph-name="afii10026" unicode="&#x418;" horiz-adv-x="1472" 
d="M981 0v817q-110 -151 -314.5 -437.5t-271.5 -379.5h-272v1456h366v-817l586 817h275v-1456h-369z" />
    <glyph glyph-name="afii10027" unicode="&#x419;" horiz-adv-x="1472" 
d="M625 1751q0 -49 32.5 -74.5t77.5 -25.5q46 0 78.5 25.5t32.5 74.5v27h256v-31q0 -256 -367 -256q-366 0 -366 256v31h256v-27zM981 0v817q-110 -151 -314.5 -437.5t-271.5 -379.5h-272v1456h366v-817l586 817h275v-1456h-369z" />
    <glyph glyph-name="afii10028" unicode="&#x41a;" horiz-adv-x="1431" 
d="M123 0v1456h369v-567h86l372 567h422l-491 -711q523 -692 563 -745h-479l-404 573h-69v-573h-369z" />
    <glyph glyph-name="afii10029" unicode="&#x41b;" horiz-adv-x="1439" 
d="M20 29v270q28 -4 39 -4q157 0 219 228.5t62 762.5v170h977v-1456h-369v1159h-278q-1 -189 -10.5 -340.5t-30 -287t-54.5 -233t-82.5 -169.5t-116 -107.5t-153.5 -35.5q-92 0 -203 43z" />
    <glyph glyph-name="afii10030" unicode="&#x41c;" horiz-adv-x="1865" 
d="M174 1456h348l402 -887l387 887h360l103 -1456h-375l-53 831l-345 -841h-202l-357 841l-36 -831h-314z" />
    <glyph glyph-name="afii10031" unicode="&#x41d;" horiz-adv-x="1441" 
d="M492 905h460v551h367v-1456h-367v602h-460v-602h-369v1456h369v-551z" />
    <glyph glyph-name="afii10032" unicode="&#x41e;" horiz-adv-x="1503" 
d="M762 1475q103 0 199 -25.5t184.5 -83t153.5 -141.5t104 -209t39 -277q0 -173 -53 -317t-147 -241.5t-224 -151.5t-281 -54q-212 0 -366 93t-232 257t-78 382q0 155 40 284t107.5 217t158 149.5t190 89.5t205.5 28zM754 268q80 0 141 43t94.5 113t49.5 147t16 158
q0 76 -17 151.5t-51 144.5t-95 112t-140 43t-139.5 -43t-94.5 -112t-50.5 -144.5t-16.5 -151.5q0 -52 9.5 -110.5t32.5 -121.5t56 -113.5t86.5 -83t118.5 -32.5z" />
    <glyph glyph-name="afii10033" unicode="&#x41f;" horiz-adv-x="1427" 
d="M492 1159v-1159h-369v1456h1182v-1456h-369v1159h-444z" />
    <glyph glyph-name="afii10034" unicode="&#x420;" horiz-adv-x="1243" 
d="M492 494v-494h-369v1456h520q267 0 417 -126t150 -347q0 -102 -37.5 -190.5t-107.5 -155t-179 -105t-243 -38.5h-151zM492 1159v-373h151q79 0 135 53t56 140t-55 133.5t-136 46.5h-151z" />
    <glyph glyph-name="afii10035" unicode="&#x421;" horiz-adv-x="1310" 
d="M1167 467l107 -254q-119 -119 -255.5 -178.5t-275.5 -59.5q-106 0 -206.5 32t-186.5 96t-150.5 151.5t-101.5 206t-37 252.5q0 172 59 316t160 239.5t235.5 148.5t285.5 53q192 0 391 -90l-23 -290q-190 71 -325 71q-84 0 -153.5 -24t-125 -74.5t-86 -136.5t-30.5 -201
q0 -200 100 -313t252 -113q178 0 366 168z" />
    <glyph glyph-name="afii10036" unicode="&#x422;" horiz-adv-x="1216" 
d="M1202 1456v-297h-411v-1159h-367v1159h-410v297h1188z" />
    <glyph glyph-name="afii10037" unicode="&#x423;" horiz-adv-x="1320" 
d="M295 272q52 0 92.5 11t79.5 42.5t65 84.5l-542 1046h422l315 -649l262 649h363l-455 -1048q-94 -217 -213.5 -322.5t-300.5 -105.5q-93 0 -201 24v277q11 -1 53 -5t60 -4z" />
    <glyph glyph-name="afii10038" unicode="&#x424;" horiz-adv-x="1716" 
d="M680 485v539h-21q-51 0 -91 -11.5t-65.5 -28t-44 -43t-27 -48t-13.5 -52t-5.5 -45.5t-0.5 -38q0 -130 62.5 -201.5t184.5 -71.5h21zM1036 1024v-539h19q122 0 185 71.5t63 201.5q0 22 -0.5 38t-5.5 46t-14 51.5t-27.5 48t-44 43t-65.5 28t-91 11.5h-19zM1042 201v-201
h-368v201h-21q-93 0 -181.5 21t-168.5 66t-140.5 109t-96 156t-35.5 201q0 123 40 221t103 158.5t147.5 100.5t166 55.5t165.5 15.5h21v202h368v-202h19q85 0 167 -15.5t166.5 -55.5t148 -100.5t103.5 -158.5t40 -221q0 -109 -36 -201t-96.5 -156t-141.5 -109t-169.5 -66
t-181.5 -21h-19z" />
    <glyph glyph-name="afii10039" unicode="&#x425;" horiz-adv-x="1495" 
d="M1024 0l-311 524l-295 -524h-398l496 752l-450 704h448l274 -471l265 471h372l-444 -692l494 -764h-451z" /></font>
</defs>
</svg>
